<?xml version="1.0" encoding="UTF-8" standalone="no"?>
<!-- Created with Inkscape (http://www.inkscape.org/) -->

<svg
   xmlns:dc="http://purl.org/dc/elements/1.1/"
   xmlns:cc="http://creativecommons.org/ns#"
   xmlns:rdf="http://www.w3.org/1999/02/22-rdf-syntax-ns#"
   xmlns:svg="http://www.w3.org/2000/svg"
   xmlns="http://www.w3.org/2000/svg"
   xmlns:sodipodi="http://sodipodi.sourceforge.net/DTD/sodipodi-0.dtd"
   xmlns:inkscape="http://www.inkscape.org/namespaces/inkscape"
   width="640"
   height="1136"
   id="svg2"
   version="1.1"
   inkscape:version="0.48.2 r9819"
   sodipodi:docname="background_personalStats-hd.svg"
   inkscape:export-filename="/Users/Victor/Documents/Custom/XCode/FALLING DOTS/Falling Dots 1.2.1/Falling Dots/Resources/HD/background_personalStats-hd.png"
   inkscape:export-xdpi="90"
   inkscape:export-ydpi="90">
  <defs
     id="defs4" />
  <sodipodi:namedview
     id="base"
     pagecolor="#ffffff"
     bordercolor="#666666"
     borderopacity="1.0"
     inkscape:pageopacity="0.0"
     inkscape:pageshadow="2"
     inkscape:zoom="0.75"
     inkscape:cx="98.28571"
     inkscape:cy="222.85714"
     inkscape:document-units="px"
     inkscape:current-layer="layer1"
     showgrid="false"
     inkscape:window-width="1280"
     inkscape:window-height="752"
     inkscape:window-x="0"
     inkscape:window-y="0"
     inkscape:window-maximized="1" />
  <metadata
     id="metadata7">
    <rdf:RDF>
      <cc:Work
         rdf:about="">
        <dc:format>image/svg+xml</dc:format>
        <dc:type
           rdf:resource="http://purl.org/dc/dcmitype/StillImage" />
        <dc:title></dc:title>
      </cc:Work>
    </rdf:RDF>
  </metadata>
  <g
     inkscape:label="Layer 1"
     inkscape:groupmode="layer"
     id="layer1"
     transform="translate(0,83.63782)">
    <rect
       style="fill:#f0f0f0;fill-opacity:1;stroke:none"
       id="rect3753"
       width="640"
       height="1136"
       x="0"
       y="-83.637817" />
    <path
       sodipodi:type="arc"
       style="fill:#f50000;fill-opacity:0.29411765;stroke:none"
       id="path3798"
       sodipodi:cx="-46.400002"
       sodipodi:cy="3.9000001"
       sodipodi:rx="8.1999998"
       sodipodi:ry="2.7"
       d="m -38.200002,3.9000001 a 8.1999998,2.7 0 1 1 -16.399999,0 8.1999998,2.7 0 1 1 16.399999,0 z"
       transform="matrix(12.12422,0,0,36.821768,696.98242,314.24512)" />
    <path
       sodipodi:type="arc"
       style="fill:#141414;fill-opacity:0.29411765;stroke:none"
       id="path3798-7"
       sodipodi:cx="-46.400002"
       sodipodi:cy="3.9000001"
       sodipodi:rx="8.1999998"
       sodipodi:ry="2.7"
       d="m -38.200002,3.9000001 a 8.1999998,2.7 0 1 1 -16.399999,0 8.1999998,2.7 0 1 1 16.399999,0 z"
       transform="matrix(12.12422,0,0,36.821768,882.56382,155.17604)" />
    <path
       sodipodi:type="arc"
       style="fill:#0000f5;fill-opacity:0.29411765;stroke:none"
       id="path3798-6"
       sodipodi:cx="-46.400002"
       sodipodi:cy="3.9000001"
       sodipodi:rx="8.1999998"
       sodipodi:ry="2.7"
       d="m -38.200002,3.9000001 a 8.1999998,2.7 0 1 1 -16.399999,0 8.1999998,2.7 0 1 1 16.399999,0 z"
       transform="matrix(12.12422,0,0,36.821768,763.26142,526.3385)" />
    <path
       sodipodi:type="arc"
       style="fill:#00f500;fill-opacity:0.29411765;stroke:none"
       id="path3798-2"
       sodipodi:cx="-46.400002"
       sodipodi:cy="3.9000001"
       sodipodi:rx="8.1999998"
       sodipodi:ry="2.7"
       d="m -38.200002,3.9000001 a 8.1999998,2.7 0 1 1 -16.399999,0 8.1999998,2.7 0 1 1 16.399999,0 z"
       transform="matrix(12.12422,0,0,36.821768,1068.1452,314.24512)" />
    <path
       sodipodi:type="arc"
       style="fill:#f500f5;fill-opacity:0.29411765;stroke:none"
       id="path3798-1"
       sodipodi:cx="-46.400002"
       sodipodi:cy="3.9000001"
       sodipodi:rx="8.1999998"
       sodipodi:ry="2.7"
       d="m -38.200002,3.9000001 a 8.1999998,2.7 0 1 1 -16.399999,0 8.1999998,2.7 0 1 1 16.399999,0 z"
       transform="matrix(12.12422,0,0,36.821768,1001.8661,526.3385)" />
  </g>
</svg>
