<?xml version="1.0" encoding="UTF-8" standalone="no"?>
<!-- Created with Inkscape (http://www.inkscape.org/) -->

<svg
   xmlns:dc="http://purl.org/dc/elements/1.1/"
   xmlns:cc="http://creativecommons.org/ns#"
   xmlns:rdf="http://www.w3.org/1999/02/22-rdf-syntax-ns#"
   xmlns:svg="http://www.w3.org/2000/svg"
   xmlns="http://www.w3.org/2000/svg"
   xmlns:sodipodi="http://sodipodi.sourceforge.net/DTD/sodipodi-0.dtd"
   xmlns:inkscape="http://www.inkscape.org/namespaces/inkscape"
   width="320"
   height="40"
   id="svg2"
   version="1.1"
   inkscape:version="0.48.2 r9819"
   sodipodi:docname="background_notification.svg">
  <defs
     id="defs4" />
  <sodipodi:namedview
     id="base"
     pagecolor="#ffffff"
     bordercolor="#666666"
     borderopacity="1.0"
     inkscape:pageopacity="0.0"
     inkscape:pageshadow="2"
     inkscape:zoom="2.559375"
     inkscape:cx="113.11355"
     inkscape:cy="20.000017"
     inkscape:document-units="px"
     inkscape:current-layer="layer1"
     showgrid="false"
     inkscape:window-width="1280"
     inkscape:window-height="752"
     inkscape:window-x="0"
     inkscape:window-y="0"
     inkscape:window-maximized="1" />
  <metadata
     id="metadata7">
    <rdf:RDF>
      <cc:Work
         rdf:about="">
        <dc:format>image/svg+xml</dc:format>
        <dc:type
           rdf:resource="http://purl.org/dc/dcmitype/StillImage" />
        <dc:title></dc:title>
      </cc:Work>
    </rdf:RDF>
  </metadata>
  <g
     inkscape:label="Layer 1"
     inkscape:groupmode="layer"
     id="layer1"
     transform="translate(0,-1012.3622)">
    <rect
       style="fill:#f0f0f0;fill-opacity:1;stroke:#141414;stroke-width:2.87707495999999985;stroke-miterlimit:4;stroke-opacity:1;stroke-dasharray:none"
       id="rect2985"
       width="317.12292"
       height="37.122925"
       x="1.4385375"
       y="1013.8007" />
    <path
       sodipodi:type="arc"
       style="fill:#f50000;fill-opacity:1;stroke:none"
       id="path3798"
       sodipodi:cx="-46.400002"
       sodipodi:cy="3.9000001"
       sodipodi:rx="8.1999998"
       sodipodi:ry="2.7"
       d="m -38.200002,3.9000001 a 8.1999998,2.7 0 1 1 -16.399999,0 8.1999998,2.7 0 1 1 16.399999,0 z"
       transform="matrix(0.6062111,0,0,1.8410891,38.849127,1023.8564)" />
    <path
       sodipodi:type="arc"
       style="fill:#141414;fill-opacity:1;stroke:none"
       id="path3798-7"
       sodipodi:cx="-46.400002"
       sodipodi:cy="3.9000001"
       sodipodi:rx="8.1999998"
       sodipodi:ry="2.7"
       d="m -38.200002,3.9000001 a 8.1999998,2.7 0 1 1 -16.399999,0 8.1999998,2.7 0 1 1 16.399999,0 z"
       transform="matrix(0.6062111,0,0,1.8410891,48.128207,1015.9029)" />
    <path
       sodipodi:type="arc"
       style="fill:#0000f5;fill-opacity:1;stroke:none"
       id="path3798-6"
       sodipodi:cx="-46.400002"
       sodipodi:cy="3.9000001"
       sodipodi:rx="8.1999998"
       sodipodi:ry="2.7"
       d="m -38.200002,3.9000001 a 8.1999998,2.7 0 1 1 -16.399999,0 8.1999998,2.7 0 1 1 16.399999,0 z"
       transform="matrix(0.6062111,0,0,1.8410891,42.163077,1034.461)" />
    <path
       sodipodi:type="arc"
       style="fill:#00f500;fill-opacity:1;stroke:none"
       id="path3798-2"
       sodipodi:cx="-46.400002"
       sodipodi:cy="3.9000001"
       sodipodi:rx="8.1999998"
       sodipodi:ry="2.7"
       d="m -38.200002,3.9000001 a 8.1999998,2.7 0 1 1 -16.399999,0 8.1999998,2.7 0 1 1 16.399999,0 z"
       transform="matrix(0.6062111,0,0,1.8410891,57.407267,1023.8564)" />
    <path
       sodipodi:type="arc"
       style="fill:#f500f5;fill-opacity:1;stroke:none"
       id="path3798-1"
       sodipodi:cx="-46.400002"
       sodipodi:cy="3.9000001"
       sodipodi:rx="8.1999998"
       sodipodi:ry="2.7"
       d="m -38.200002,3.9000001 a 8.1999998,2.7 0 1 1 -16.399999,0 8.1999998,2.7 0 1 1 16.399999,0 z"
       transform="matrix(0.6062111,0,0,1.8410891,54.093317,1034.461)" />
  </g>
</svg>
