<?xml version="1.0" encoding="UTF-8" standalone="no"?>
<!-- Created with Inkscape (http://www.inkscape.org/) -->

<svg
   xmlns:dc="http://purl.org/dc/elements/1.1/"
   xmlns:cc="http://creativecommons.org/ns#"
   xmlns:rdf="http://www.w3.org/1999/02/22-rdf-syntax-ns#"
   xmlns:svg="http://www.w3.org/2000/svg"
   xmlns="http://www.w3.org/2000/svg"
   xmlns:sodipodi="http://sodipodi.sourceforge.net/DTD/sodipodi-0.dtd"
   xmlns:inkscape="http://www.inkscape.org/namespaces/inkscape"
   width="300"
   height="140"
   id="svg2"
   version="1.1"
   inkscape:version="0.48.2 r9819"
   sodipodi:docname="challenges_backgroundCompleted.svg"
   inkscape:export-filename="/Users/Victor/Documents/Custom/XCode/FALLING DOTS/Falling Dots 1.1.0/Falling Dots/Resources/challenges_backgroundCompleted.png"
   inkscape:export-xdpi="90"
   inkscape:export-ydpi="90">
  <defs
     id="defs4" />
  <sodipodi:namedview
     id="base"
     pagecolor="#ffffff"
     bordercolor="#666666"
     borderopacity="1.0"
     inkscape:pageopacity="0.0"
     inkscape:pageshadow="2"
     inkscape:zoom="2.73"
     inkscape:cx="150"
     inkscape:cy="70"
     inkscape:document-units="px"
     inkscape:current-layer="layer1"
     showgrid="false"
     inkscape:window-width="1280"
     inkscape:window-height="752"
     inkscape:window-x="0"
     inkscape:window-y="0"
     inkscape:window-maximized="1"
     showguides="true"
     inkscape:guide-bbox="true" />
  <metadata
     id="metadata7">
    <rdf:RDF>
      <cc:Work
         rdf:about="">
        <dc:format>image/svg+xml</dc:format>
        <dc:type
           rdf:resource="http://purl.org/dc/dcmitype/StillImage" />
        <dc:title />
      </cc:Work>
    </rdf:RDF>
  </metadata>
  <g
     inkscape:label="Layer 1"
     inkscape:groupmode="layer"
     id="layer1"
     transform="translate(0,-912.36218)">
    <rect
       y="914.36218"
       x="2"
       height="138"
       width="298"
       id="rect2987"
       style="fill:#c8c8c8;fill-opacity:1;stroke:none" />
    <rect
       style="fill:#ffffff;fill-opacity:1;stroke:none"
       id="rect2985"
       width="298"
       height="138"
       x="0"
       y="912.36218" />
    <path
       transform="matrix(4.8780489,0,0,14.814815,376.34148,861.5844)"
       d="m -38.200002,3.9000001 a 8.1999998,2.7 0 1 1 -16.399999,0 8.1999998,2.7 0 1 1 16.399999,0 z"
       sodipodi:ry="2.7"
       sodipodi:rx="8.1999998"
       sodipodi:cy="3.9000001"
       sodipodi:cx="-46.400002"
       id="path3787"
       style="fill:#141414;fill-opacity:0.11764706;stroke:none"
       sodipodi:type="arc" />
    <text
       xml:space="preserve"
       style="font-size:18px;font-style:normal;font-variant:normal;font-weight:normal;font-stretch:normal;line-height:125%;letter-spacing:0px;word-spacing:0px;fill:#000000;fill-opacity:1;stroke:none;font-family:Gulim;-inkscape-font-specification:Gulim"
       x="28"
       y="208"
       id="text3780"
       sodipodi:linespacing="125%"
       transform="translate(0,602.36218)"><tspan
         sodipodi:role="line"
         id="tspan3782"
         x="28"
         y="208" /></text>
    <path
       transform="matrix(4.8780489,0,0,14.814815,336.34148,987.5844)"
       d="m -38.200002,3.9000001 a 8.1999998,2.7 0 1 1 -16.399999,0 8.1999998,2.7 0 1 1 16.399999,0 z"
       sodipodi:ry="2.7"
       sodipodi:rx="8.1999998"
       sodipodi:cy="3.9000001"
       sodipodi:cx="-46.400002"
       id="path3793"
       style="fill:#0000f5;fill-opacity:0.11764706;stroke:none"
       sodipodi:type="arc" />
    <path
       sodipodi:type="arc"
       style="fill:#f50000;fill-opacity:0.27450982;stroke:none;stroke-opacity:0.19607843000000000"
       id="path3798"
       sodipodi:cx="-46.400002"
       sodipodi:cy="3.9000001"
       sodipodi:rx="8.1999998"
       sodipodi:ry="2.7"
       d="m -38.200002,3.9000001 c 0,1.4911688 -3.671265,2.7 -8.2,2.7 -4.528734,0 -8.199999,-1.2088312 -8.199999,-2.7 0,-1.4911689 3.671265,-2.7000001 8.199999,-2.7000001 4.528735,0 8.2,1.2088312 8.2,2.7000001 z"
       transform="matrix(2.424844,0,0,7.3643538,225.39649,948.33881)" />
    <path
       sodipodi:type="arc"
       style="fill:#141414;fill-opacity:0.27450982;stroke:none;stroke-opacity:0.58823532000000001"
       id="path3798-7"
       sodipodi:cx="-46.400002"
       sodipodi:cy="3.9000001"
       sodipodi:rx="8.1999998"
       sodipodi:ry="2.7"
       d="m -38.200002,3.9000001 c 0,1.4911688 -3.671265,2.7 -8.2,2.7 -4.528734,0 -8.199999,-1.2088312 -8.199999,-2.7 0,-1.4911689 3.671265,-2.7000001 8.199999,-2.7000001 4.528735,0 8.2,1.2088312 8.2,2.7000001 z"
       transform="matrix(2.424844,0,0,7.3643538,262.51277,916.52499)" />
    <path
       transform="matrix(4.8780489,0,0,14.814815,313.34148,911.5844)"
       d="m -38.200002,3.9000001 a 8.1999998,2.7 0 1 1 -16.399999,0 8.1999998,2.7 0 1 1 16.399999,0 z"
       sodipodi:ry="2.7"
       sodipodi:rx="8.1999998"
       sodipodi:cy="3.9000001"
       sodipodi:cx="-46.400002"
       id="path3795"
       style="fill:#f50000;fill-opacity:0.11764706;stroke:none"
       sodipodi:type="arc" />
    <path
       sodipodi:type="arc"
       style="fill:#0000f5;fill-opacity:0.27450982;stroke:none;stroke-opacity:0.19607843000000000"
       id="path3798-6"
       sodipodi:cx="-46.400002"
       sodipodi:cy="3.9000001"
       sodipodi:rx="8.1999998"
       sodipodi:ry="2.7"
       d="m -38.200002,3.9000001 c 0,1.4911688 -3.671265,2.7 -8.2,2.7 -4.528734,0 -8.199999,-1.2088312 -8.199999,-2.7 0,-1.4911689 3.671265,-2.7000001 8.199999,-2.7000001 4.528735,0 8.2,1.2088312 8.2,2.7000001 z"
       transform="matrix(2.424844,0,0,7.3643538,238.65229,990.75744)" />
    <path
       transform="matrix(4.8780489,0,0,14.814815,416.34148,987.5844)"
       d="m -38.200002,3.9000001 a 8.1999998,2.7 0 1 1 -16.399999,0 8.1999998,2.7 0 1 1 16.399999,0 z"
       sodipodi:ry="2.7"
       sodipodi:rx="8.1999998"
       sodipodi:cy="3.9000001"
       sodipodi:cx="-46.400002"
       id="path3791"
       style="fill:#f500f5;fill-opacity:0.11764706;stroke:none"
       sodipodi:type="arc" />
    <path
       transform="matrix(4.8780489,0,0,14.814815,439.34148,911.5844)"
       d="m -38.200002,3.9000001 a 8.1999998,2.7 0 1 1 -16.399999,0 8.1999998,2.7 0 1 1 16.399999,0 z"
       sodipodi:ry="2.7"
       sodipodi:rx="8.1999998"
       sodipodi:cy="3.9000001"
       sodipodi:cx="-46.400002"
       id="path3789"
       style="fill:#00f500;fill-opacity:0.11764706;stroke:none"
       sodipodi:type="arc" />
    <path
       sodipodi:type="arc"
       style="fill:#00f500;fill-opacity:0.27450982;stroke:none;stroke-opacity:0.19607843000000000"
       id="path3798-2"
       sodipodi:cx="-46.400002"
       sodipodi:cy="3.9000001"
       sodipodi:rx="8.1999998"
       sodipodi:ry="2.7"
       d="m -38.200002,3.9000001 c 0,1.4911688 -3.671265,2.7 -8.2,2.7 -4.528734,0 -8.199999,-1.2088312 -8.199999,-2.7 0,-1.4911689 3.671265,-2.7000001 8.199999,-2.7000001 4.528735,0 8.2,1.2088312 8.2,2.7000001 z"
       transform="matrix(2.424844,0,0,7.3643538,299.62905,948.33881)" />
    <path
       sodipodi:type="arc"
       style="fill:#f500f5;fill-opacity:0.27450982;stroke:none;stroke-opacity:0.19607843000000000"
       id="path3798-1"
       sodipodi:cx="-46.400002"
       sodipodi:cy="3.9000001"
       sodipodi:rx="8.1999998"
       sodipodi:ry="2.7"
       d="m -38.200002,3.9000001 c 0,1.4911688 -3.671265,2.7 -8.2,2.7 -4.528734,0 -8.199999,-1.2088312 -8.199999,-2.7 0,-1.4911689 3.671265,-2.7000001 8.199999,-2.7000001 4.528735,0 8.2,1.2088312 8.2,2.7000001 z"
       transform="matrix(2.424844,0,0,7.3643538,286.37323,990.75744)" />
  </g>
</svg>
