<?xml version="1.0" encoding="UTF-8" standalone="no"?>
<!-- Created with Inkscape (http://www.inkscape.org/) -->

<svg
   xmlns:dc="http://purl.org/dc/elements/1.1/"
   xmlns:cc="http://creativecommons.org/ns#"
   xmlns:rdf="http://www.w3.org/1999/02/22-rdf-syntax-ns#"
   xmlns:svg="http://www.w3.org/2000/svg"
   xmlns="http://www.w3.org/2000/svg"
   xmlns:sodipodi="http://sodipodi.sourceforge.net/DTD/sodipodi-0.dtd"
   xmlns:inkscape="http://www.inkscape.org/namespaces/inkscape"
   width="600"
   height="280"
   id="svg2"
   version="1.1"
   inkscape:version="0.48.2 r9819"
   sodipodi:docname="challenges_background-hd.svg"
   inkscape:export-filename="/Users/Victor/Documents/Custom/XCode/FALLING DOTS/Falling Dots 1.1.0/Falling Dots/Resources/HD/challenges_background-hd.png"
   inkscape:export-xdpi="90"
   inkscape:export-ydpi="90">
  <defs
     id="defs4" />
  <sodipodi:namedview
     id="base"
     pagecolor="#ffffff"
     bordercolor="#666666"
     borderopacity="1.0"
     inkscape:pageopacity="0.0"
     inkscape:pageshadow="2"
     inkscape:zoom="1"
     inkscape:cx="46.69597"
     inkscape:cy="59.19414"
     inkscape:document-units="px"
     inkscape:current-layer="layer1"
     showgrid="false"
     inkscape:window-width="1280"
     inkscape:window-height="752"
     inkscape:window-x="0"
     inkscape:window-y="0"
     inkscape:window-maximized="1"
     showguides="true"
     inkscape:guide-bbox="true" />
  <metadata
     id="metadata7">
    <rdf:RDF>
      <cc:Work
         rdf:about="">
        <dc:format>image/svg+xml</dc:format>
        <dc:type
           rdf:resource="http://purl.org/dc/dcmitype/StillImage" />
        <dc:title></dc:title>
      </cc:Work>
    </rdf:RDF>
  </metadata>
  <g
     inkscape:label="Layer 1"
     inkscape:groupmode="layer"
     id="layer1"
     transform="translate(0,-772.36218)">
    <g
       id="g3808"
       transform="matrix(2,0,0,2,0,-1052.3622)">
      <rect
         style="fill:#c8c8c8;fill-opacity:1;stroke:none"
         id="rect2987"
         width="298"
         height="138"
         x="2"
         y="914.36218" />
      <rect
         y="912.36218"
         x="0"
         height="138"
         width="298"
         id="rect2985"
         style="fill:#ffffff;fill-opacity:1;stroke:none" />
      <text
         transform="translate(0,602.36218)"
         sodipodi:linespacing="125%"
         id="text3780"
         y="208"
         x="28"
         style="font-size:18px;font-style:normal;font-variant:normal;font-weight:normal;font-stretch:normal;line-height:125%;letter-spacing:0px;word-spacing:0px;fill:#000000;fill-opacity:1;stroke:none;font-family:Gulim;-inkscape-font-specification:Gulim"
         xml:space="preserve"><tspan
           y="208"
           x="28"
           id="tspan3782"
           sodipodi:role="line" /></text>
      <path
         transform="matrix(2.424844,0,0,7.3643538,225.39649,948.33881)"
         d="m -38.200002,3.9000001 c 0,1.4911688 -3.671265,2.7 -8.2,2.7 -4.528734,0 -8.199999,-1.2088312 -8.199999,-2.7 0,-1.4911689 3.671265,-2.7000001 8.199999,-2.7000001 4.528735,0 8.2,1.2088312 8.2,2.7000001 z"
         sodipodi:ry="2.7"
         sodipodi:rx="8.1999998"
         sodipodi:cy="3.9000001"
         sodipodi:cx="-46.400002"
         id="path3798"
         style="fill:none;stroke:#f50000;stroke-opacity:0.11764706"
         sodipodi:type="arc" />
      <path
         transform="matrix(2.424844,0,0,7.3643538,262.51277,916.52499)"
         d="m -38.200002,3.9000001 c 0,1.4911688 -3.671265,2.7 -8.2,2.7 -4.528734,0 -8.199999,-1.2088312 -8.199999,-2.7 0,-1.4911689 3.671265,-2.7000001 8.199999,-2.7000001 4.528735,0 8.2,1.2088312 8.2,2.7000001 z"
         sodipodi:ry="2.7"
         sodipodi:rx="8.1999998"
         sodipodi:cy="3.9000001"
         sodipodi:cx="-46.400002"
         id="path3798-7"
         style="fill:none;stroke:#141414;stroke-opacity:0.11764706"
         sodipodi:type="arc" />
      <path
         transform="matrix(2.424844,0,0,7.3643538,238.65229,990.75744)"
         d="m -38.200002,3.9000001 c 0,1.4911688 -3.671265,2.7 -8.2,2.7 -4.528734,0 -8.199999,-1.2088312 -8.199999,-2.7 0,-1.4911689 3.671265,-2.7000001 8.199999,-2.7000001 4.528735,0 8.2,1.2088312 8.2,2.7000001 z"
         sodipodi:ry="2.7"
         sodipodi:rx="8.1999998"
         sodipodi:cy="3.9000001"
         sodipodi:cx="-46.400002"
         id="path3798-6"
         style="fill:none;stroke:#0000f5;stroke-opacity:0.11764706"
         sodipodi:type="arc" />
      <path
         transform="matrix(2.424844,0,0,7.3643538,299.62905,948.33881)"
         d="m -38.200002,3.9000001 c 0,1.4911688 -3.671265,2.7 -8.2,2.7 -4.528734,0 -8.199999,-1.2088312 -8.199999,-2.7 0,-1.4911689 3.671265,-2.7000001 8.199999,-2.7000001 4.528735,0 8.2,1.2088312 8.2,2.7000001 z"
         sodipodi:ry="2.7"
         sodipodi:rx="8.1999998"
         sodipodi:cy="3.9000001"
         sodipodi:cx="-46.400002"
         id="path3798-2"
         style="fill:none;stroke:#00f500;stroke-opacity:0.11764706"
         sodipodi:type="arc" />
      <path
         transform="matrix(2.424844,0,0,7.3643538,286.37323,990.75744)"
         d="m -38.200002,3.9000001 c 0,1.4911688 -3.671265,2.7 -8.2,2.7 -4.528734,0 -8.199999,-1.2088312 -8.199999,-2.7 0,-1.4911689 3.671265,-2.7000001 8.199999,-2.7000001 4.528735,0 8.2,1.2088312 8.2,2.7000001 z"
         sodipodi:ry="2.7"
         sodipodi:rx="8.1999998"
         sodipodi:cy="3.9000001"
         sodipodi:cx="-46.400002"
         id="path3798-1"
         style="fill:none;stroke:#f500f5;stroke-opacity:0.11764706"
         sodipodi:type="arc" />
    </g>
  </g>
</svg>
