<?xml version="1.0" encoding="UTF-8" standalone="no"?>
<!-- Created with Inkscape (http://www.inkscape.org/) -->

<svg
   xmlns:dc="http://purl.org/dc/elements/1.1/"
   xmlns:cc="http://creativecommons.org/ns#"
   xmlns:rdf="http://www.w3.org/1999/02/22-rdf-syntax-ns#"
   xmlns:svg="http://www.w3.org/2000/svg"
   xmlns="http://www.w3.org/2000/svg"
   xmlns:sodipodi="http://sodipodi.sourceforge.net/DTD/sodipodi-0.dtd"
   xmlns:inkscape="http://www.inkscape.org/namespaces/inkscape"
   width="30"
   height="30"
   id="svg2"
   version="1.1"
   inkscape:version="0.48.2 r9819"
   sodipodi:docname="dot_powerup3.svg">
  <defs
     id="defs4" />
  <sodipodi:namedview
     id="base"
     pagecolor="#ffffff"
     bordercolor="#666666"
     borderopacity="1.0"
     inkscape:pageopacity="0.0"
     inkscape:pageshadow="2"
     inkscape:zoom="1"
     inkscape:cx="-175.99642"
     inkscape:cy="10"
     inkscape:document-units="px"
     inkscape:current-layer="layer1"
     showgrid="false"
     inkscape:window-width="1280"
     inkscape:window-height="752"
     inkscape:window-x="0"
     inkscape:window-y="0"
     inkscape:window-maximized="1" />
  <metadata
     id="metadata7">
    <rdf:RDF>
      <cc:Work
         rdf:about="">
        <dc:format>image/svg+xml</dc:format>
        <dc:type
           rdf:resource="http://purl.org/dc/dcmitype/StillImage" />
        <dc:title></dc:title>
      </cc:Work>
    </rdf:RDF>
  </metadata>
  <g
     inkscape:label="Layer 1"
     inkscape:groupmode="layer"
     id="layer1"
     transform="translate(0,-1022.3622)">
    <path
       sodipodi:type="arc"
       style="fill:#f07800;fill-opacity:1;stroke:none"
       id="path3004"
       sodipodi:cx="36"
       sodipodi:cy="24"
       sodipodi:rx="44"
       sodipodi:ry="50"
       d="M 80,24 C 80,51.614237 60.300529,74 36,74 11.699471,74 -8,51.614237 -8,24 c 0,-27.6142375 19.699471,-50 44,-50 24.300529,0 44,22.3857625 44,50 z"
       transform="matrix(0.34090909,0,0,0.3,2.7272727,1030.1622)" />
    <path
       sodipodi:type="arc"
       style="fill:#f0f0f0;fill-opacity:1;stroke:none"
       id="path3774"
       sodipodi:cx="10.501792"
       sodipodi:cy="9.5519714"
       sodipodi:rx="3.1182795"
       sodipodi:ry="2.7060931"
       d="m 13.620071,9.5519714 c 0,1.4945336 -1.396101,2.7060936 -3.118279,2.7060936 -1.7221782,0 -3.1182795,-1.21156 -3.1182795,-2.7060936 0,-1.4945339 1.3961013,-2.706093 3.1182795,-2.706093 1.722178,0 3.118279,1.2115591 3.118279,2.706093 z"
       transform="matrix(2.4051724,0,0,2.7715233,-10.258621,1010.8887)" />
  </g>
</svg>
