<?xml version="1.0" encoding="UTF-8" standalone="no"?>
<!-- Created with Inkscape (http://www.inkscape.org/) -->

<svg
   xmlns:dc="http://purl.org/dc/elements/1.1/"
   xmlns:cc="http://creativecommons.org/ns#"
   xmlns:rdf="http://www.w3.org/1999/02/22-rdf-syntax-ns#"
   xmlns:svg="http://www.w3.org/2000/svg"
   xmlns="http://www.w3.org/2000/svg"
   xmlns:sodipodi="http://sodipodi.sourceforge.net/DTD/sodipodi-0.dtd"
   xmlns:inkscape="http://www.inkscape.org/namespaces/inkscape"
   width="438"
   height="136"
   id="svg3118"
   version="1.1"
   inkscape:version="0.48.2 r9819"
   sodipodi:docname="mainMenu_dots-hd.svg"
   inkscape:export-filename="/Users/Victor/Documents/Custom/XCode/FALLING DOTS/Falling Dots/Falling Dots/Resources/HD/mainMenu_dots-hd.png"
   inkscape:export-xdpi="90"
   inkscape:export-ydpi="90">
  <defs
     id="defs3120" />
  <sodipodi:namedview
     id="base"
     pagecolor="#ffffff"
     bordercolor="#666666"
     borderopacity="1.0"
     inkscape:pageopacity="0.0"
     inkscape:pageshadow="2"
     inkscape:zoom="1"
     inkscape:cx="109.5"
     inkscape:cy="33.999997"
     inkscape:document-units="px"
     inkscape:current-layer="layer1"
     showgrid="false"
     inkscape:window-width="1280"
     inkscape:window-height="752"
     inkscape:window-x="0"
     inkscape:window-y="0"
     inkscape:window-maximized="1" />
  <metadata
     id="metadata3123">
    <rdf:RDF>
      <cc:Work
         rdf:about="">
        <dc:format>image/svg+xml</dc:format>
        <dc:type
           rdf:resource="http://purl.org/dc/dcmitype/StillImage" />
        <dc:title></dc:title>
      </cc:Work>
    </rdf:RDF>
  </metadata>
  <g
     inkscape:label="Layer 1"
     inkscape:groupmode="layer"
     id="layer1"
     transform="translate(0,-916.36218)">
    <rect
       y="920.36218"
       x="4"
       height="132"
       width="434"
       id="rect3795"
       style="fill:#c8c8c8;fill-opacity:1;stroke:none" />
    <rect
       style="fill:#ffffff;fill-opacity:1;stroke:none"
       id="rect3793"
       width="434"
       height="132"
       x="0"
       y="916.36218" />
    <path
       sodipodi:type="arc"
       style="fill:#f50000;fill-opacity:1;stroke:none"
       id="path3798"
       sodipodi:cx="-46.400002"
       sodipodi:cy="3.9000001"
       sodipodi:rx="8.1999998"
       sodipodi:ry="2.7"
       d="m -38.200002,3.9000001 a 8.1999998,2.7 0 1 1 -16.399999,0 8.1999998,2.7 0 1 1 16.399999,0 z"
       transform="matrix(2.424844,0,0,7.364341,260.39648,952.03862)" />
    <path
       sodipodi:type="arc"
       style="fill:#141414;fill-opacity:1;stroke:none"
       id="path3798-7"
       sodipodi:cx="-46.400002"
       sodipodi:cy="3.9000001"
       sodipodi:rx="8.1999998"
       sodipodi:ry="2.7"
       d="m -38.200002,3.9000001 a 8.1999998,2.7 0 1 1 -16.399999,0 8.1999998,2.7 0 1 1 16.399999,0 z"
       transform="matrix(2.424844,0,0,7.364341,297.51276,920.22486)" />
    <path
       sodipodi:type="arc"
       style="fill:#0000f5;fill-opacity:1;stroke:none"
       id="path3798-6"
       sodipodi:cx="-46.400002"
       sodipodi:cy="3.9000001"
       sodipodi:rx="8.1999998"
       sodipodi:ry="2.7"
       d="m -38.200002,3.9000001 a 8.1999998,2.7 0 1 1 -16.399999,0 8.1999998,2.7 0 1 1 16.399999,0 z"
       transform="matrix(2.424844,0,0,7.364341,273.65228,994.45722)" />
    <path
       sodipodi:type="arc"
       style="fill:#00f500;fill-opacity:1;stroke:none"
       id="path3798-2"
       sodipodi:cx="-46.400002"
       sodipodi:cy="3.9000001"
       sodipodi:rx="8.1999998"
       sodipodi:ry="2.7"
       d="m -38.200002,3.9000001 a 8.1999998,2.7 0 1 1 -16.399999,0 8.1999998,2.7 0 1 1 16.399999,0 z"
       transform="matrix(2.424844,0,0,7.364341,334.62904,952.03862)" />
    <path
       sodipodi:type="arc"
       style="fill:#f500f5;fill-opacity:1;stroke:none"
       id="path3798-1"
       sodipodi:cx="-46.400002"
       sodipodi:cy="3.9000001"
       sodipodi:rx="8.1999998"
       sodipodi:ry="2.7"
       d="m -38.200002,3.9000001 a 8.1999998,2.7 0 1 1 -16.399999,0 8.1999998,2.7 0 1 1 16.399999,0 z"
       transform="matrix(2.424844,0,0,7.364341,321.37322,994.45722)" />
    <text
       xml:space="preserve"
       style="font-size:80px;font-style:normal;font-variant:normal;font-weight:normal;font-stretch:normal;line-height:125%;letter-spacing:0px;word-spacing:0px;fill:#000000;fill-opacity:1;stroke:none;font-family:Sans;-inkscape-font-specification:Newspaper"
       x="14"
       y="1036.5309"
       id="text3017"
       sodipodi:linespacing="125%"><tspan
         sodipodi:role="line"
         id="tspan3019"
         x="14"
         y="1036.5309"
         style="font-size:144px;font-style:normal;font-variant:normal;font-weight:bold;font-stretch:normal;font-family:Eurostile;-inkscape-font-specification:Eurostile Bold">D    TS</tspan></text>
  </g>
</svg>
