<?xml version="1.0" encoding="UTF-8" standalone="no"?>
<!-- Created with Inkscape (http://www.inkscape.org/) -->

<svg
   xmlns:dc="http://purl.org/dc/elements/1.1/"
   xmlns:cc="http://creativecommons.org/ns#"
   xmlns:rdf="http://www.w3.org/1999/02/22-rdf-syntax-ns#"
   xmlns:svg="http://www.w3.org/2000/svg"
   xmlns="http://www.w3.org/2000/svg"
   xmlns:sodipodi="http://sodipodi.sourceforge.net/DTD/sodipodi-0.dtd"
   xmlns:inkscape="http://www.inkscape.org/namespaces/inkscape"
   width="320"
   height="80"
   id="svg2"
   version="1.1"
   inkscape:version="0.48.2 r9819"
   sodipodi:docname="mainMenu_play-hd.svg"
   inkscape:export-filename="/Users/Victor/Documents/Custom/XCode/FALLING DOTS/Falling Dots 1.2.1/Falling Dots/Resources/HD/mainMenu_playSelected-hd.png"
   inkscape:export-xdpi="90"
   inkscape:export-ydpi="90">
  <defs
     id="defs4" />
  <sodipodi:namedview
     id="base"
     pagecolor="#ffffff"
     bordercolor="#666666"
     borderopacity="1.0"
     inkscape:pageopacity="0.0"
     inkscape:pageshadow="2"
     inkscape:zoom="1"
     inkscape:cx="-97"
     inkscape:cy="20.000017"
     inkscape:document-units="px"
     inkscape:current-layer="layer1"
     showgrid="false"
     inkscape:window-width="1280"
     inkscape:window-height="752"
     inkscape:window-x="0"
     inkscape:window-y="0"
     inkscape:window-maximized="1" />
  <metadata
     id="metadata7">
    <rdf:RDF>
      <cc:Work
         rdf:about="">
        <dc:format>image/svg+xml</dc:format>
        <dc:type
           rdf:resource="http://purl.org/dc/dcmitype/StillImage" />
        <dc:title></dc:title>
      </cc:Work>
    </rdf:RDF>
  </metadata>
  <g
     inkscape:label="Layer 1"
     inkscape:groupmode="layer"
     id="layer1"
     transform="translate(0,-972.3622)">
    <rect
       style="fill:#009696;fill-opacity:1;stroke:none"
       id="rect2985"
       width="320"
       height="80"
       x="0"
       y="972.36218"
       ry="40" />
    <g
       style="font-size:40px;font-style:normal;font-variant:normal;font-weight:normal;font-stretch:normal;line-height:125%;letter-spacing:0px;word-spacing:0px;fill:#f5f5f5;fill-opacity:1;stroke:none;font-family:Sans;-inkscape-font-specification:Newspaper"
       id="text3774"
       transform="matrix(2,0,0,2,38.125,-1052.3622)">
      <path
         d="m 29.9375,1038.0106 0,-10.664 4.296875,0 0.53125,0 c 1.442701,0 2.414054,0.2526 2.914062,0.7578 0.5052,0.5 0.757804,1.4687 0.757813,2.9062 -9e-6,1.4271 -0.239593,2.375 -0.71875,2.8438 -0.479175,0.4687 -1.447924,0.7031 -2.90625,0.7031 l -0.46875,0.01 -2.382813,0 0,3.4453 -2.023437,0 m 2.023437,-5.1484 2.304688,0 c 0.91666,0 1.497389,-0.1042 1.742187,-0.3125 0.249993,-0.2136 0.374993,-0.7136 0.375,-1.5 -7e-6,-0.9011 -0.104173,-1.4583 -0.3125,-1.6719 -0.203131,-0.2187 -0.736985,-0.3281 -1.601562,-0.3281 l -2.507813,0 0,3.8125"
         style="font-size:16px;font-weight:bold;fill:#f5f5f5;font-family:Eurostile;-inkscape-font-specification:Eurostile Bold"
         id="path3005"
         inkscape:connector-curvature="0" />
      <path
         d="m 41.453125,1027.3466 0,10.664 -1.789063,0 0,-10.664 1.789063,0"
         style="font-size:16px;font-weight:bold;fill:#f5f5f5;font-family:Eurostile;-inkscape-font-specification:Eurostile Bold"
         id="path3007"
         inkscape:connector-curvature="0" />
      <path
         d="m 45.085937,1032.7059 -1.828125,0 c 0,-0.8958 0.208333,-1.4948 0.625,-1.7968 0.416665,-0.3021 1.242185,-0.4532 2.476563,-0.4532 1.343745,0 2.252598,0.1849 2.726562,0.5547 0.473952,0.3698 0.710931,1.0755 0.710938,2.1172 l 0,4.8828 -1.789063,0 0.08594,-1.0234 -0.04687,-0.01 c -0.343755,0.7448 -1.138025,1.1172 -2.382813,1.1172 -1.807293,0 -2.710938,-0.7683 -2.710937,-2.3047 -10e-7,-1.5521 0.924478,-2.3282 2.773437,-2.3282 1.234371,0 1.98437,0.2839 2.25,0.8516 l 0.03125,0 0,-1.2109 c -5e-6,-0.5834 -0.101568,-0.9688 -0.304687,-1.1563 -0.20313,-0.1927 -0.619796,-0.289 -1.25,-0.289 -0.911462,0 -1.36719,0.3489 -1.367188,1.0468 m 1.195313,1.961 c -1.01042,0 -1.515627,0.3489 -1.515625,1.0468 -2e-6,0.4844 0.104164,0.8021 0.3125,0.9532 0.20833,0.151 0.64583,0.2265 1.3125,0.2265 1.088537,0 1.632807,-0.3672 1.632812,-1.1015 -5e-6,-0.75 -0.580734,-1.125 -1.742187,-1.125"
         style="font-size:16px;font-weight:bold;fill:#f5f5f5;font-family:Eurostile;-inkscape-font-specification:Eurostile Bold"
         id="path3009"
         inkscape:connector-curvature="0" />
      <path
         d="m 57.71875,1030.5419 -1.960938,7.9375 c -0.276046,1.125 -0.619796,1.8802 -1.03125,2.2656 -0.406253,0.3906 -1.059898,0.5859 -1.960937,0.5859 -0.203127,0 -0.414064,-0.01 -0.632813,-0.031 l 0,-1.3203 c 0.156249,0.01 0.286457,0.016 0.390625,0.016 0.760415,0 1.242185,-0.6615 1.445313,-1.9844 l -0.914063,0 -2.445312,-7.4687 1.921875,0 0.9375,3.164 0.46875,1.586 c 0.02604,0.1041 0.09895,0.3698 0.21875,0.7968 l 0.226562,0.7891 0.03906,0 0.164062,-0.7891 c 0.08333,-0.4062 0.138017,-0.6718 0.164063,-0.7968 l 0.367187,-1.586 0.71875,-3.164 1.882813,0"
         style="font-size:16px;font-weight:bold;fill:#f5f5f5;font-family:Eurostile;-inkscape-font-specification:Eurostile Bold"
         id="path3011"
         inkscape:connector-curvature="0" />
    </g>
  </g>
</svg>
