<?xml version="1.0" encoding="UTF-8" standalone="no"?>
<!-- Created with Inkscape (http://www.inkscape.org/) -->

<svg
   xmlns:dc="http://purl.org/dc/elements/1.1/"
   xmlns:cc="http://creativecommons.org/ns#"
   xmlns:rdf="http://www.w3.org/1999/02/22-rdf-syntax-ns#"
   xmlns:svg="http://www.w3.org/2000/svg"
   xmlns="http://www.w3.org/2000/svg"
   xmlns:sodipodi="http://sodipodi.sourceforge.net/DTD/sodipodi-0.dtd"
   xmlns:inkscape="http://www.inkscape.org/namespaces/inkscape"
   width="240"
   height="40"
   id="svg2"
   version="1.1"
   inkscape:version="0.48.2 r9819"
   sodipodi:docname="settings_skin_default.svg">
  <defs
     id="defs4" />
  <sodipodi:namedview
     id="base"
     pagecolor="#ffffff"
     bordercolor="#666666"
     borderopacity="1.0"
     inkscape:pageopacity="0.0"
     inkscape:pageshadow="2"
     inkscape:zoom="1"
     inkscape:cx="120"
     inkscape:cy="20.852931"
     inkscape:document-units="px"
     inkscape:current-layer="layer1"
     showgrid="false"
     inkscape:window-width="1280"
     inkscape:window-height="752"
     inkscape:window-x="0"
     inkscape:window-y="0"
     inkscape:window-maximized="1" />
  <metadata
     id="metadata7">
    <rdf:RDF>
      <cc:Work
         rdf:about="">
        <dc:format>image/svg+xml</dc:format>
        <dc:type
           rdf:resource="http://purl.org/dc/dcmitype/StillImage" />
        <dc:title></dc:title>
      </cc:Work>
    </rdf:RDF>
  </metadata>
  <g
     inkscape:label="Layer 1"
     inkscape:groupmode="layer"
     id="layer1"
     transform="translate(0,-1012.3622)">
    <rect
       y="1014.3623"
       x="2"
       height="38"
       width="238"
       id="rect2987"
       style="fill:#c8c8c8;fill-opacity:1;stroke:none" />
    <rect
       style="fill:#ffffff;fill-opacity:1;stroke:none"
       id="rect2985"
       width="238"
       height="38"
       x="0"
       y="1012.3623" />
    <text
       xml:space="preserve"
       style="font-size:8.60564613px;font-style:normal;font-variant:normal;font-weight:normal;font-stretch:normal;line-height:125%;letter-spacing:0px;word-spacing:0px;fill:#000000;fill-opacity:1;stroke:none;font-family:Gulim;-inkscape-font-specification:Gulim"
       x="13.38656"
       y="1645.2406"
       id="text3780"
       sodipodi:linespacing="125%"
       transform="scale(1.67332,0.59761431)"><tspan
         sodipodi:role="line"
         id="tspan3782"
         x="13.38656"
         y="1645.2406" /></text>
    <path
       sodipodi:type="arc"
       style="fill:#141414;fill-opacity:1;stroke:none"
       id="path3038"
       sodipodi:cx="115"
       sodipodi:cy="14"
       sodipodi:rx="15"
       sodipodi:ry="15"
       d="m 130,14 a 15,15 0 1 1 -30,0 15,15 0 1 1 30,0 z"
       transform="matrix(0.66666667,0,0,0.66666667,43.333334,1023.0289)" />
    <path
       transform="matrix(0.66666667,0,0,0.66666667,3.3333333,1023.0289)"
       d="m 130,14 a 15,15 0 1 1 -30,0 15,15 0 1 1 30,0 z"
       sodipodi:ry="15"
       sodipodi:rx="15"
       sodipodi:cy="14"
       sodipodi:cx="115"
       id="path3808"
       style="fill:#f00000;fill-opacity:1;stroke:none"
       sodipodi:type="arc" />
    <path
       sodipodi:type="arc"
       style="fill:#00f000;fill-opacity:1;stroke:none"
       id="path3810"
       sodipodi:cx="115"
       sodipodi:cy="14"
       sodipodi:rx="15"
       sodipodi:ry="15"
       d="m 130,14 a 15,15 0 1 1 -30,0 15,15 0 1 1 30,0 z"
       transform="matrix(0.66666667,0,0,0.66666667,83.333333,1023.0289)" />
    <path
       transform="matrix(0.66666667,0,0,0.66666667,-36.666667,1023.0289)"
       d="m 130,14 a 15,15 0 1 1 -30,0 15,15 0 1 1 30,0 z"
       sodipodi:ry="15"
       sodipodi:rx="15"
       sodipodi:cy="14"
       sodipodi:cx="115"
       id="path3812"
       style="fill:#f000f0;fill-opacity:1;stroke:none"
       sodipodi:type="arc" />
    <path
       sodipodi:type="arc"
       style="fill:#0000f0;fill-opacity:1;stroke:none"
       id="path3814"
       sodipodi:cx="115"
       sodipodi:cy="14"
       sodipodi:rx="15"
       sodipodi:ry="15"
       d="m 130,14 a 15,15 0 1 1 -30,0 15,15 0 1 1 30,0 z"
       transform="matrix(0.66666667,0,0,0.66666667,123.33333,1023.0289)" />
  </g>
</svg>
