<?xml version="1.0" encoding="UTF-8" standalone="no"?>
<!-- Created with Inkscape (http://www.inkscape.org/) -->

<svg
   xmlns:dc="http://purl.org/dc/elements/1.1/"
   xmlns:cc="http://creativecommons.org/ns#"
   xmlns:rdf="http://www.w3.org/1999/02/22-rdf-syntax-ns#"
   xmlns:svg="http://www.w3.org/2000/svg"
   xmlns="http://www.w3.org/2000/svg"
   xmlns:sodipodi="http://sodipodi.sourceforge.net/DTD/sodipodi-0.dtd"
   xmlns:inkscape="http://www.inkscape.org/namespaces/inkscape"
   width="600"
   height="280"
   id="svg2"
   version="1.1"
   inkscape:version="0.48.2 r9819"
   sodipodi:docname="shop_background_diamondOwned-hd.svg"
   inkscape:export-filename="/Users/Victor/Documents/Custom/XCode/FALLING DOTS/Falling Dots 1.5.0/Falling Dots/Resources/HD/shop_background_diamondOwned-hd.png"
   inkscape:export-xdpi="90"
   inkscape:export-ydpi="90">
  <defs
     id="defs4" />
  <sodipodi:namedview
     id="base"
     pagecolor="#ffffff"
     bordercolor="#666666"
     borderopacity="1.0"
     inkscape:pageopacity="0.0"
     inkscape:pageshadow="2"
     inkscape:zoom="1"
     inkscape:cx="196.2"
     inkscape:cy="54.99995"
     inkscape:document-units="px"
     inkscape:current-layer="layer1"
     showgrid="false"
     inkscape:window-width="1280"
     inkscape:window-height="752"
     inkscape:window-x="0"
     inkscape:window-y="0"
     inkscape:window-maximized="1" />
  <metadata
     id="metadata7">
    <rdf:RDF>
      <cc:Work
         rdf:about="">
        <dc:format>image/svg+xml</dc:format>
        <dc:type
           rdf:resource="http://purl.org/dc/dcmitype/StillImage" />
        <dc:title></dc:title>
      </cc:Work>
    </rdf:RDF>
  </metadata>
  <g
     inkscape:label="Layer 1"
     inkscape:groupmode="layer"
     id="layer1"
     transform="translate(0,-772.3622)">
    <rect
       ry="0"
       y="659.97089"
       x="-628.06384"
       height="63.813583"
       width="63.813583"
       id="rect4575"
       style="fill:#f000f0;fill-opacity:0.0627451;stroke:none"
       transform="matrix(0.70500684,-0.7092005,0.70500684,0.7092005,0,0)" />
    <rect
       style="fill:#ffcdff;fill-opacity:1;stroke:none"
       id="rect4577"
       width="95.720367"
       height="95.720367"
       x="-683.50018"
       y="683.50018"
       ry="0"
       transform="matrix(0.70500684,-0.7092005,0.70500684,0.7092005,0,0)" />
    <rect
       style="fill:#f000f0;fill-opacity:0.0627451;stroke:none"
       id="rect4579"
       width="39.883484"
       height="39.883484"
       x="-585.07684"
       y="640.91394"
       ry="0"
       transform="matrix(0.70500684,-0.7092005,0.70500684,0.7092005,0,0)" />
    <rect
       ry="0"
       y="634.26593"
       x="-554.49854"
       height="15.953396"
       width="15.953396"
       id="rect4581"
       style="fill:#f000f0;fill-opacity:0.0627451;stroke:none"
       transform="matrix(0.70500684,-0.7092005,0.70500684,0.7092005,0,0)" />
    <rect
       transform="matrix(0.70500684,-0.7092005,0.70500684,0.7092005,0,0)"
       style="fill:#f00000;fill-opacity:0.0627451;stroke:none"
       id="rect4567"
       width="63.813583"
       height="63.813583"
       x="-552.09271"
       y="735.94214"
       ry="0" />
    <rect
       transform="matrix(0.70500684,-0.7092005,0.70500684,0.7092005,0,0)"
       ry="0"
       y="759.47113"
       x="-607.52893"
       height="95.720367"
       width="95.720367"
       id="rect4569"
       style="fill:#ffcdcd;fill-opacity:1;stroke:none" />
    <rect
       transform="matrix(0.70500684,-0.7092005,0.70500684,0.7092005,0,0)"
       ry="0"
       y="716.88519"
       x="-509.10571"
       height="39.883484"
       width="39.883484"
       id="rect4571"
       style="fill:#f00000;fill-opacity:0.0627451;stroke:none" />
    <rect
       transform="matrix(0.70500684,-0.7092005,0.70500684,0.7092005,0,0)"
       style="fill:#f00000;fill-opacity:0.0627451;stroke:none"
       id="rect4573"
       width="15.953396"
       height="15.953396"
       x="-478.52744"
       y="710.237"
       ry="0" />
    <rect
       ry="0"
       y="989.77832"
       x="-298.25653"
       height="63.813583"
       width="63.813583"
       id="rect4583"
       style="fill:#0000f0;fill-opacity:0.0627451;stroke:none"
       transform="matrix(0.70500684,-0.7092005,0.70500684,0.7092005,0,0)" />
    <rect
       style="fill:#cdcdff;fill-opacity:1;stroke:none"
       id="rect4585"
       width="95.720367"
       height="95.720367"
       x="-353.6926"
       y="1013.3074"
       ry="0"
       transform="matrix(0.70500684,-0.7092005,0.70500684,0.7092005,0,0)" />
    <rect
       style="fill:#0000f0;fill-opacity:0.0627451;stroke:none"
       id="rect4587"
       width="39.883484"
       height="39.883484"
       x="-255.26949"
       y="970.72144"
       ry="0"
       transform="matrix(0.70500684,-0.7092005,0.70500684,0.7092005,0,0)" />
    <rect
       ry="0"
       y="964.07324"
       x="-224.69113"
       height="15.953396"
       width="15.953396"
       id="rect4589"
       style="fill:#0000f0;fill-opacity:0.0627451;stroke:none"
       transform="matrix(0.70500684,-0.7092005,0.70500684,0.7092005,0,0)" />
    <rect
       transform="matrix(0.70500684,-0.7092005,0.70500684,0.7092005,0,0)"
       style="fill:#00f000;fill-opacity:0.0627451;stroke:none"
       id="rect4591"
       width="63.813583"
       height="63.813583"
       x="-374.22763"
       y="913.80707"
       ry="0" />
    <rect
       transform="matrix(0.70500684,-0.7092005,0.70500684,0.7092005,0,0)"
       ry="0"
       y="937.33643"
       x="-429.66388"
       height="95.720367"
       width="95.720367"
       id="rect4593"
       style="fill:#cdffcd;fill-opacity:1;stroke:none" />
    <rect
       transform="matrix(0.70500684,-0.7092005,0.70500684,0.7092005,0,0)"
       ry="0"
       y="894.75012"
       x="-331.2406"
       height="39.883484"
       width="39.883484"
       id="rect4595"
       style="fill:#00f000;fill-opacity:0.0627451;stroke:none" />
    <rect
       transform="matrix(0.70500684,-0.7092005,0.70500684,0.7092005,0,0)"
       style="fill:#00f000;fill-opacity:0.0627451;stroke:none"
       id="rect4597"
       width="15.953396"
       height="15.953396"
       x="-300.66232"
       y="888.10211"
       ry="0" />
    <rect
       ry="0"
       y="796.05737"
       x="-451.83081"
       height="79.990997"
       width="79.990997"
       id="rect3814"
       style="fill:#000000;fill-opacity:0.09803922;stroke:none"
       transform="matrix(0.70701361,-0.70719994,0.70701361,0.70719994,0,0)" />
    <rect
       style="fill:#cdcdcd;fill-opacity:1;stroke:none"
       id="rect3025"
       width="119.9865"
       height="119.9865"
       x="-521.32043"
       y="825.55127"
       ry="0"
       transform="matrix(0.70701361,-0.70719994,0.70701361,0.70719994,0,0)" />
    <rect
       style="fill:#000000;fill-opacity:0.05882353;stroke:none"
       id="rect3816"
       width="49.99437"
       height="49.99437"
       x="-397.94604"
       y="772.16925"
       ry="0"
       transform="matrix(0.70701361,-0.70719994,0.70701361,0.70719994,0,0)" />
    <rect
       ry="0"
       y="763.83557"
       x="-359.61569"
       height="19.997749"
       width="19.997749"
       id="rect3818"
       style="fill:#000000;fill-opacity:0.03137255;stroke:none"
       transform="matrix(0.70701361,-0.70719994,0.70701361,0.70719994,0,0)" />
  </g>
</svg>
