<?xml version="1.0" encoding="UTF-8" standalone="no"?>
<!-- Created with Inkscape (http://www.inkscape.org/) -->

<svg
   xmlns:dc="http://purl.org/dc/elements/1.1/"
   xmlns:cc="http://creativecommons.org/ns#"
   xmlns:rdf="http://www.w3.org/1999/02/22-rdf-syntax-ns#"
   xmlns:svg="http://www.w3.org/2000/svg"
   xmlns="http://www.w3.org/2000/svg"
   xmlns:sodipodi="http://sodipodi.sourceforge.net/DTD/sodipodi-0.dtd"
   xmlns:inkscape="http://www.inkscape.org/namespaces/inkscape"
   width="100"
   height="100"
   id="svg2"
   version="1.1"
   inkscape:version="0.48.2 r9819"
   sodipodi:docname="shop_item2-hd.svg"
   inkscape:export-filename="/Users/Victor/Documents/Custom/XCode/FALLING DOTS/Falling Dots 1.5.0/Falling Dots/Resources/HD/shop_item1-hd.png"
   inkscape:export-xdpi="90"
   inkscape:export-ydpi="90">
  <defs
     id="defs4" />
  <sodipodi:namedview
     id="base"
     pagecolor="#ffffff"
     bordercolor="#666666"
     borderopacity="1.0"
     inkscape:pageopacity="0.0"
     inkscape:pageshadow="2"
     inkscape:zoom="5"
     inkscape:cx="24.8"
     inkscape:cy="56.999954"
     inkscape:document-units="px"
     inkscape:current-layer="layer1"
     showgrid="false"
     inkscape:window-width="1280"
     inkscape:window-height="752"
     inkscape:window-x="0"
     inkscape:window-y="0"
     inkscape:window-maximized="1" />
  <metadata
     id="metadata7">
    <rdf:RDF>
      <cc:Work
         rdf:about="">
        <dc:format>image/svg+xml</dc:format>
        <dc:type
           rdf:resource="http://purl.org/dc/dcmitype/StillImage" />
        <dc:title />
      </cc:Work>
    </rdf:RDF>
  </metadata>
  <g
     inkscape:label="Layer 1"
     inkscape:groupmode="layer"
     id="layer1"
     transform="translate(0,-952.3622)">
    <path
       sodipodi:type="arc"
       style="fill:#f000f0;fill-opacity:0.19607843;stroke:none"
       id="path3899"
       sodipodi:cx="56"
       sodipodi:cy="53"
       sodipodi:rx="24"
       sodipodi:ry="23"
       d="M 80,53 C 80,65.702549 69.254834,76 56,76 42.745166,76 32,65.702549 32,53 32,40.297451 42.745166,30 56,30 69.254834,30 80,40.297451 80,53 z"
       transform="matrix(1.875,0,0,1.9565217,-55,898.66655)" />
    <path
       transform="matrix(1.25,0,0,1.3043478,-20,933.23177)"
       d="M 80,53 C 80,65.702549 69.254834,76 56,76 42.745166,76 32,65.702549 32,53 32,40.297451 42.745166,30 56,30 69.254834,30 80,40.297451 80,53 z"
       sodipodi:ry="23"
       sodipodi:rx="24"
       sodipodi:cy="53"
       sodipodi:cx="56"
       id="path3897"
       style="fill:#f000f0;fill-opacity:0.29411766;stroke:none"
       sodipodi:type="arc" />
    <path
       sodipodi:type="arc"
       style="fill:#f000f0;fill-opacity:1;stroke:none"
       id="path3895"
       sodipodi:cx="56"
       sodipodi:cy="53"
       sodipodi:rx="24"
       sodipodi:ry="23"
       d="M 80,53 C 80,65.702549 69.254834,76 56,76 42.745166,76 32,65.702549 32,53 32,40.297451 42.745166,30 56,30 69.254834,30 80,40.297451 80,53 z"
       transform="matrix(0.83333333,0,0,0.86956522,3.3333334,956.27524)" />
  </g>
</svg>
