<?xml version="1.0" encoding="UTF-8" standalone="no"?>
<!-- Created with Inkscape (http://www.inkscape.org/) -->

<svg
   xmlns:dc="http://purl.org/dc/elements/1.1/"
   xmlns:cc="http://creativecommons.org/ns#"
   xmlns:rdf="http://www.w3.org/1999/02/22-rdf-syntax-ns#"
   xmlns:svg="http://www.w3.org/2000/svg"
   xmlns="http://www.w3.org/2000/svg"
   xmlns:sodipodi="http://sodipodi.sourceforge.net/DTD/sodipodi-0.dtd"
   xmlns:inkscape="http://www.inkscape.org/namespaces/inkscape"
   width="300"
   height="140"
   id="svg2"
   version="1.1"
   inkscape:version="0.48.2 r9819"
   sodipodi:docname="shop_background_starOwned.svg"
   inkscape:export-filename="/Users/Victor/Documents/Custom/XCode/FALLING DOTS/Falling Dots 1.5.0/Falling Dots/Resources/shop_background_diamond.png"
   inkscape:export-xdpi="90"
   inkscape:export-ydpi="90">
  <defs
     id="defs4" />
  <sodipodi:namedview
     id="base"
     pagecolor="#ffffff"
     bordercolor="#666666"
     borderopacity="1.0"
     inkscape:pageopacity="0.0"
     inkscape:pageshadow="2"
     inkscape:zoom="1"
     inkscape:cx="151.00001"
     inkscape:cy="66.999982"
     inkscape:document-units="px"
     inkscape:current-layer="layer1"
     showgrid="false"
     inkscape:window-width="1280"
     inkscape:window-height="752"
     inkscape:window-x="0"
     inkscape:window-y="0"
     inkscape:window-maximized="1" />
  <metadata
     id="metadata7">
    <rdf:RDF>
      <cc:Work
         rdf:about="">
        <dc:format>image/svg+xml</dc:format>
        <dc:type
           rdf:resource="http://purl.org/dc/dcmitype/StillImage" />
        <dc:title></dc:title>
      </cc:Work>
    </rdf:RDF>
  </metadata>
  <g
     inkscape:label="Layer 1"
     inkscape:groupmode="layer"
     id="layer1"
     transform="translate(0,-912.3622)">
    <path
       inkscape:transform-center-y="-1.9101034"
       inkscape:transform-center-x="-0.1837457"
       transform="matrix(0.91381711,0,0,0.9520969,-24.72282,992.45801)"
       d="m 204,1.9999997 -13.29281,-8.6443602 -13.76004,7.8794179 4.11357,-15.3134714 -11.74586,-10.6517 L 185.15,-25.55 l 6.5007,-14.462531 5.67308,14.806754 15.76351,1.713365 -12.32898,9.970963 z"
       inkscape:randomized="0"
       inkscape:rounded="0"
       inkscape:flatsided="false"
       sodipodi:arg2="1.5990646"
       sodipodi:arg1="0.97074611"
       sodipodi:r2="10.359778"
       sodipodi:r1="23.021729"
       sodipodi:cy="-17"
       sodipodi:cx="191"
       sodipodi:sides="5"
       id="path3900"
       style="fill:#000000;fill-opacity:0.09803922;stroke:none"
       sodipodi:type="star" />
    <path
       sodipodi:type="star"
       style="fill:#000000;fill-opacity:0.04705882;stroke:none"
       id="path3902"
       sodipodi:sides="5"
       sodipodi:cx="191"
       sodipodi:cy="-17"
       sodipodi:r1="23.021729"
       sodipodi:r2="10.359778"
       sodipodi:arg1="0.97074611"
       sodipodi:arg2="1.5990646"
       inkscape:flatsided="false"
       inkscape:rounded="0"
       inkscape:randomized="0"
       d="m 204,1.9999997 -13.29281,-8.6443602 -13.76004,7.8794179 4.11357,-15.3134714 -11.74586,-10.6517 L 185.15,-25.55 l 6.5007,-14.462531 5.67308,14.806754 15.76351,1.713365 -12.32898,9.970963 z"
       transform="matrix(0.68536283,0,0,0.71407267,18.957889,965.93405)"
       inkscape:transform-center-x="-0.13780883"
       inkscape:transform-center-y="-1.4325758" />
    <path
       inkscape:transform-center-y="-0.76403815"
       inkscape:transform-center-x="-0.073498903"
       transform="matrix(0.36552685,0,0,0.38083876,80.110873,943.60052)"
       d="m 204,1.9999997 -13.29281,-8.6443602 -13.76004,7.8794179 4.11357,-15.3134714 -11.74586,-10.6517 L 185.15,-25.55 l 6.5007,-14.462531 5.67308,14.806754 15.76351,1.713365 -12.32898,9.970963 z"
       inkscape:randomized="0"
       inkscape:rounded="0"
       inkscape:flatsided="false"
       sodipodi:arg2="1.5990646"
       sodipodi:arg1="0.97074611"
       sodipodi:r2="10.359778"
       sodipodi:r1="23.021729"
       sodipodi:cy="-17"
       sodipodi:cx="191"
       sodipodi:sides="5"
       id="path3904"
       style="fill:#000000;fill-opacity:0.03137255;stroke:none"
       sodipodi:type="star" />
    <path
       sodipodi:type="star"
       style="fill:#cdcdcd;fill-opacity:1;stroke:none"
       id="path3898"
       sodipodi:sides="5"
       sodipodi:cx="191"
       sodipodi:cy="-17"
       sodipodi:r1="23.021729"
       sodipodi:r2="10.359778"
       sodipodi:arg1="0.97074611"
       sodipodi:arg2="1.5990646"
       inkscape:flatsided="false"
       inkscape:rounded="0"
       inkscape:randomized="0"
       d="m 204,1.9999997 -13.29281,-8.6443602 -13.76004,7.8794179 4.11357,-15.3134714 -11.74586,-10.6517 L 185.15,-25.55 l 6.5007,-14.462531 5.67308,14.806754 15.76351,1.713365 -12.32898,9.970963 z"
       transform="matrix(1.5991799,0,0,1.6661696,-155.76492,1039.0299)"
       inkscape:transform-center-x="-0.32155715"
       inkscape:transform-center-y="-3.3427495" />
    <path
       sodipodi:type="star"
       style="fill:#f00000;fill-opacity:0.05882353;stroke:none"
       id="path3077"
       sodipodi:sides="5"
       sodipodi:cx="191"
       sodipodi:cy="-17"
       sodipodi:r1="23.021729"
       sodipodi:r2="10.359778"
       sodipodi:arg1="0.97074611"
       sodipodi:arg2="1.5990646"
       inkscape:flatsided="false"
       inkscape:rounded="0"
       inkscape:randomized="0"
       d="m 204,1.9999997 -13.29281,-8.6443602 -13.76004,7.8794179 4.11357,-15.3134714 -11.74586,-10.6517 L 185.15,-25.55 l 6.5007,-14.462531 5.67308,14.806754 15.76351,1.713365 -12.32898,9.970963 z"
       transform="matrix(0.73105371,0,0,0.76167724,-46.77826,1002.4388)"
       inkscape:transform-center-x="-0.1469961"
       inkscape:transform-center-y="-1.5280823" />
    <path
       inkscape:transform-center-y="-1.1460601"
       inkscape:transform-center-x="-0.11024726"
       transform="matrix(0.54829028,0,0,0.57125793,-11.833691,981.21964)"
       d="m 204,1.9999997 -13.29281,-8.6443602 -13.76004,7.8794179 4.11357,-15.3134714 -11.74586,-10.6517 L 185.15,-25.55 l 6.5007,-14.462531 5.67308,14.806754 15.76351,1.713365 -12.32898,9.970963 z"
       inkscape:randomized="0"
       inkscape:rounded="0"
       inkscape:flatsided="false"
       sodipodi:arg2="1.5990646"
       sodipodi:arg1="0.97074611"
       sodipodi:r2="10.359778"
       sodipodi:r1="23.021729"
       sodipodi:cy="-17"
       sodipodi:cx="191"
       sodipodi:sides="5"
       id="path3079"
       style="fill:#f00000;fill-opacity:0.05882353;stroke:none"
       sodipodi:type="star" />
    <path
       sodipodi:type="star"
       style="fill:#f00000;fill-opacity:0.05882353;stroke:none"
       id="path3081"
       sodipodi:sides="5"
       sodipodi:cx="191"
       sodipodi:cy="-17"
       sodipodi:r1="23.021729"
       sodipodi:r2="10.359778"
       sodipodi:arg1="0.97074611"
       sodipodi:arg2="1.5990646"
       inkscape:flatsided="false"
       inkscape:rounded="0"
       inkscape:randomized="0"
       d="m 204,1.9999997 -13.29281,-8.6443602 -13.76004,7.8794179 4.11357,-15.3134714 -11.74586,-10.6517 L 185.15,-25.55 l 6.5007,-14.462531 5.67308,14.806754 15.76351,1.713365 -12.32898,9.970963 z"
       transform="matrix(0.29242149,0,0,0.3046709,37.088697,963.35282)"
       inkscape:transform-center-x="-0.058799369"
       inkscape:transform-center-y="-0.61123267" />
    <path
       inkscape:transform-center-y="-2.6741674"
       inkscape:transform-center-x="-0.25725636"
       transform="matrix(1.279344,0,0,1.3329352,-151.61194,1039.6963)"
       d="m 204,1.9999997 -13.29281,-8.6443602 -13.76004,7.8794179 4.11357,-15.3134714 -11.74586,-10.6517 L 185.15,-25.55 l 6.5007,-14.462531 5.67308,14.806754 15.76351,1.713365 -12.32898,9.970963 z"
       inkscape:randomized="0"
       inkscape:rounded="0"
       inkscape:flatsided="false"
       sodipodi:arg2="1.5990646"
       sodipodi:arg1="0.97074611"
       sodipodi:r2="10.359778"
       sodipodi:r1="23.021729"
       sodipodi:cy="-17"
       sodipodi:cx="191"
       sodipodi:sides="5"
       id="path3083"
       style="fill:#ffcdcd;fill-opacity:1;stroke:none"
       sodipodi:type="star" />
    <path
       inkscape:transform-center-y="-1.5280823"
       inkscape:transform-center-x="-0.1469961"
       transform="matrix(0.73105371,0,0,0.76167724,-106.77826,1002.4388)"
       d="m 204,1.9999997 -13.29281,-8.6443602 -13.76004,7.8794179 4.11357,-15.3134714 -11.74586,-10.6517 L 185.15,-25.55 l 6.5007,-14.462531 5.67308,14.806754 15.76351,1.713365 -12.32898,9.970963 z"
       inkscape:randomized="0"
       inkscape:rounded="0"
       inkscape:flatsided="false"
       sodipodi:arg2="1.5990646"
       sodipodi:arg1="0.97074611"
       sodipodi:r2="10.359778"
       sodipodi:r1="23.021729"
       sodipodi:cy="-17"
       sodipodi:cx="191"
       sodipodi:sides="5"
       id="path3853"
       style="fill:#f000f0;fill-opacity:0.05882353;stroke:none"
       sodipodi:type="star" />
    <path
       sodipodi:type="star"
       style="fill:#f000f0;fill-opacity:0.05882353;stroke:none"
       id="path3855"
       sodipodi:sides="5"
       sodipodi:cx="191"
       sodipodi:cy="-17"
       sodipodi:r1="23.021729"
       sodipodi:r2="10.359778"
       sodipodi:arg1="0.97074611"
       sodipodi:arg2="1.5990646"
       inkscape:flatsided="false"
       inkscape:rounded="0"
       inkscape:randomized="0"
       d="m 204,1.9999997 -13.29281,-8.6443602 -13.76004,7.8794179 4.11357,-15.3134714 -11.74586,-10.6517 L 185.15,-25.55 l 6.5007,-14.462531 5.67308,14.806754 15.76351,1.713365 -12.32898,9.970963 z"
       transform="matrix(0.54829028,0,0,0.57125793,-71.833691,981.21964)"
       inkscape:transform-center-x="-0.11024726"
       inkscape:transform-center-y="-1.1460601" />
    <path
       inkscape:transform-center-y="-0.61123267"
       inkscape:transform-center-x="-0.058799369"
       transform="matrix(0.29242149,0,0,0.3046709,-22.911303,963.35282)"
       d="m 204,1.9999997 -13.29281,-8.6443602 -13.76004,7.8794179 4.11357,-15.3134714 -11.74586,-10.6517 L 185.15,-25.55 l 6.5007,-14.462531 5.67308,14.806754 15.76351,1.713365 -12.32898,9.970963 z"
       inkscape:randomized="0"
       inkscape:rounded="0"
       inkscape:flatsided="false"
       sodipodi:arg2="1.5990646"
       sodipodi:arg1="0.97074611"
       sodipodi:r2="10.359778"
       sodipodi:r1="23.021729"
       sodipodi:cy="-17"
       sodipodi:cx="191"
       sodipodi:sides="5"
       id="path3857"
       style="fill:#f000f0;fill-opacity:0.05882353;stroke:none"
       sodipodi:type="star" />
    <path
       sodipodi:type="star"
       style="fill:#ffcdff;fill-opacity:1;stroke:none"
       id="path3859"
       sodipodi:sides="5"
       sodipodi:cx="191"
       sodipodi:cy="-17"
       sodipodi:r1="23.021729"
       sodipodi:r2="10.359778"
       sodipodi:arg1="0.97074611"
       sodipodi:arg2="1.5990646"
       inkscape:flatsided="false"
       inkscape:rounded="0"
       inkscape:randomized="0"
       d="m 204,1.9999997 -13.29281,-8.6443602 -13.76004,7.8794179 4.11357,-15.3134714 -11.74586,-10.6517 L 185.15,-25.55 l 6.5007,-14.462531 5.67308,14.806754 15.76351,1.713365 -12.32898,9.970963 z"
       transform="matrix(1.279344,0,0,1.3329352,-211.61194,1039.6963)"
       inkscape:transform-center-x="-0.25725636"
       inkscape:transform-center-y="-2.6741674" />
    <path
       inkscape:transform-center-y="-1.5280823"
       inkscape:transform-center-x="-0.1469961"
       transform="matrix(0.73105371,0,0,0.76167724,127.22173,1002.4388)"
       d="m 204,1.9999997 -13.29281,-8.6443602 -13.76004,7.8794179 4.11357,-15.3134714 -11.74586,-10.6517 L 185.15,-25.55 l 6.5007,-14.462531 5.67308,14.806754 15.76351,1.713365 -12.32898,9.970963 z"
       inkscape:randomized="0"
       inkscape:rounded="0"
       inkscape:flatsided="false"
       sodipodi:arg2="1.5990646"
       sodipodi:arg1="0.97074611"
       sodipodi:r2="10.359778"
       sodipodi:r1="23.021729"
       sodipodi:cy="-17"
       sodipodi:cx="191"
       sodipodi:sides="5"
       id="path3879"
       style="fill:#0000f0;fill-opacity:0.05882353;stroke:none"
       sodipodi:type="star" />
    <path
       sodipodi:type="star"
       style="fill:#0000f0;fill-opacity:0.05882353;stroke:none"
       id="path3881"
       sodipodi:sides="5"
       sodipodi:cx="191"
       sodipodi:cy="-17"
       sodipodi:r1="23.021729"
       sodipodi:r2="10.359778"
       sodipodi:arg1="0.97074611"
       sodipodi:arg2="1.5990646"
       inkscape:flatsided="false"
       inkscape:rounded="0"
       inkscape:randomized="0"
       d="m 204,1.9999997 -13.29281,-8.6443602 -13.76004,7.8794179 4.11357,-15.3134714 -11.74586,-10.6517 L 185.15,-25.55 l 6.5007,-14.462531 5.67308,14.806754 15.76351,1.713365 -12.32898,9.970963 z"
       transform="matrix(0.54829028,0,0,0.57125793,162.1663,981.21967)"
       inkscape:transform-center-x="-0.11024726"
       inkscape:transform-center-y="-1.1460601" />
    <path
       inkscape:transform-center-y="-0.61123267"
       inkscape:transform-center-x="-0.058799369"
       transform="matrix(0.29242149,0,0,0.3046709,211.08869,963.35285)"
       d="m 204,1.9999997 -13.29281,-8.6443602 -13.76004,7.8794179 4.11357,-15.3134714 -11.74586,-10.6517 L 185.15,-25.55 l 6.5007,-14.462531 5.67308,14.806754 15.76351,1.713365 -12.32898,9.970963 z"
       inkscape:randomized="0"
       inkscape:rounded="0"
       inkscape:flatsided="false"
       sodipodi:arg2="1.5990646"
       sodipodi:arg1="0.97074611"
       sodipodi:r2="10.359778"
       sodipodi:r1="23.021729"
       sodipodi:cy="-17"
       sodipodi:cx="191"
       sodipodi:sides="5"
       id="path3883"
       style="fill:#0000f0;fill-opacity:0.05882353;stroke:none"
       sodipodi:type="star" />
    <path
       sodipodi:type="star"
       style="fill:#cdcdff;fill-opacity:1;stroke:none"
       id="path3885"
       sodipodi:sides="5"
       sodipodi:cx="191"
       sodipodi:cy="-17"
       sodipodi:r1="23.021729"
       sodipodi:r2="10.359778"
       sodipodi:arg1="0.97074611"
       sodipodi:arg2="1.5990646"
       inkscape:flatsided="false"
       inkscape:rounded="0"
       inkscape:randomized="0"
       d="m 204,1.9999997 -13.29281,-8.6443602 -13.76004,7.8794179 4.11357,-15.3134714 -11.74586,-10.6517 L 185.15,-25.55 l 6.5007,-14.462531 5.67308,14.806754 15.76351,1.713365 -12.32898,9.970963 z"
       transform="matrix(1.279344,0,0,1.3329352,22.38805,1039.6963)"
       inkscape:transform-center-x="-0.25725636"
       inkscape:transform-center-y="-2.6741674" />
    <path
       sodipodi:type="star"
       style="fill:#00f000;fill-opacity:0.05882353;stroke:none"
       id="path3887"
       sodipodi:sides="5"
       sodipodi:cx="191"
       sodipodi:cy="-17"
       sodipodi:r1="23.021729"
       sodipodi:r2="10.359778"
       sodipodi:arg1="0.97074611"
       sodipodi:arg2="1.5990646"
       inkscape:flatsided="false"
       inkscape:rounded="0"
       inkscape:randomized="0"
       d="m 204,1.9999997 -13.29281,-8.6443602 -13.76004,7.8794179 4.11357,-15.3134714 -11.74586,-10.6517 L 185.15,-25.55 l 6.5007,-14.462531 5.67308,14.806754 15.76351,1.713365 -12.32898,9.970963 z"
       transform="matrix(0.73105371,0,0,0.76167724,67.22173,1002.4388)"
       inkscape:transform-center-x="-0.1469961"
       inkscape:transform-center-y="-1.5280823" />
    <path
       inkscape:transform-center-y="-1.1460601"
       inkscape:transform-center-x="-0.11024726"
       transform="matrix(0.54829028,0,0,0.57125793,102.1663,981.21967)"
       d="m 204,1.9999997 -13.29281,-8.6443602 -13.76004,7.8794179 4.11357,-15.3134714 -11.74586,-10.6517 L 185.15,-25.55 l 6.5007,-14.462531 5.67308,14.806754 15.76351,1.713365 -12.32898,9.970963 z"
       inkscape:randomized="0"
       inkscape:rounded="0"
       inkscape:flatsided="false"
       sodipodi:arg2="1.5990646"
       sodipodi:arg1="0.97074611"
       sodipodi:r2="10.359778"
       sodipodi:r1="23.021729"
       sodipodi:cy="-17"
       sodipodi:cx="191"
       sodipodi:sides="5"
       id="path3889"
       style="fill:#00f000;fill-opacity:0.05882353;stroke:none"
       sodipodi:type="star" />
    <path
       sodipodi:type="star"
       style="fill:#00f000;fill-opacity:0.05882353;stroke:none"
       id="path3891"
       sodipodi:sides="5"
       sodipodi:cx="191"
       sodipodi:cy="-17"
       sodipodi:r1="23.021729"
       sodipodi:r2="10.359778"
       sodipodi:arg1="0.97074611"
       sodipodi:arg2="1.5990646"
       inkscape:flatsided="false"
       inkscape:rounded="0"
       inkscape:randomized="0"
       d="m 204,1.9999997 -13.29281,-8.6443602 -13.76004,7.8794179 4.11357,-15.3134714 -11.74586,-10.6517 L 185.15,-25.55 l 6.5007,-14.462531 5.67308,14.806754 15.76351,1.713365 -12.32898,9.970963 z"
       transform="matrix(0.29242149,0,0,0.3046709,151.08869,963.35285)"
       inkscape:transform-center-x="-0.058799369"
       inkscape:transform-center-y="-0.61123267" />
    <path
       inkscape:transform-center-y="-2.6741674"
       inkscape:transform-center-x="-0.25725636"
       transform="matrix(1.279344,0,0,1.3329352,-37.61195,1039.6963)"
       d="m 204,1.9999997 -13.29281,-8.6443602 -13.76004,7.8794179 4.11357,-15.3134714 -11.74586,-10.6517 L 185.15,-25.55 l 6.5007,-14.462531 5.67308,14.806754 15.76351,1.713365 -12.32898,9.970963 z"
       inkscape:randomized="0"
       inkscape:rounded="0"
       inkscape:flatsided="false"
       sodipodi:arg2="1.5990646"
       sodipodi:arg1="0.97074611"
       sodipodi:r2="10.359778"
       sodipodi:r1="23.021729"
       sodipodi:cy="-17"
       sodipodi:cx="191"
       sodipodi:sides="5"
       id="path3893"
       style="fill:#cdffcd;fill-opacity:1;stroke:none"
       sodipodi:type="star" />
  </g>
</svg>
