<?xml version="1.0" encoding="UTF-8" standalone="no"?>
<!-- Created with Inkscape (http://www.inkscape.org/) -->

<svg
   xmlns:dc="http://purl.org/dc/elements/1.1/"
   xmlns:cc="http://creativecommons.org/ns#"
   xmlns:rdf="http://www.w3.org/1999/02/22-rdf-syntax-ns#"
   xmlns:svg="http://www.w3.org/2000/svg"
   xmlns="http://www.w3.org/2000/svg"
   xmlns:sodipodi="http://sodipodi.sourceforge.net/DTD/sodipodi-0.dtd"
   xmlns:inkscape="http://www.inkscape.org/namespaces/inkscape"
   width="140"
   height="140"
   id="svg2"
   version="1.1"
   inkscape:version="0.48.2 r9819"
   sodipodi:docname="shop_background_item1.svg"
   inkscape:export-filename="/Users/Victor/Documents/Custom/XCode/FALLING DOTS/Falling Dots 1.5.0/Falling Dots/Resources/shop_background_item1.png"
   inkscape:export-xdpi="90"
   inkscape:export-ydpi="90">
  <defs
     id="defs4" />
  <sodipodi:namedview
     id="base"
     pagecolor="#ffffff"
     bordercolor="#666666"
     borderopacity="1.0"
     inkscape:pageopacity="0.0"
     inkscape:pageshadow="2"
     inkscape:zoom="1"
     inkscape:cx="-179.8"
     inkscape:cy="84.999954"
     inkscape:document-units="px"
     inkscape:current-layer="layer1"
     showgrid="false"
     inkscape:window-width="1280"
     inkscape:window-height="752"
     inkscape:window-x="0"
     inkscape:window-y="0"
     inkscape:window-maximized="1" />
  <metadata
     id="metadata7">
    <rdf:RDF>
      <cc:Work
         rdf:about="">
        <dc:format>image/svg+xml</dc:format>
        <dc:type
           rdf:resource="http://purl.org/dc/dcmitype/StillImage" />
        <dc:title />
      </cc:Work>
    </rdf:RDF>
  </metadata>
  <g
     inkscape:label="Layer 1"
     inkscape:groupmode="layer"
     id="layer1"
     transform="translate(0,-912.3622)">
    <g
       id="g3780"
       transform="matrix(3.1061868,0,0,3.0918293,-7.42831,-2199.9307)"
       style="fill:none;stroke:#cdcdcd;stroke-opacity:1">
      <path
         sodipodi:nodetypes="cc"
         inkscape:connector-curvature="0"
         id="path3006"
         d="m 25.1,1050.3622 0,-10"
         style="fill:none;stroke:#cdcdcd;stroke-width:1px;stroke-linecap:round;stroke-linejoin:round;stroke-opacity:1" />
      <path
         sodipodi:nodetypes="cc"
         inkscape:connector-curvature="0"
         id="path3008"
         d="m 22.1,1043.3622 3,-3"
         style="fill:none;stroke:#cdcdcd;stroke-width:1px;stroke-linecap:round;stroke-linejoin:miter;stroke-opacity:1" />
      <path
         sodipodi:nodetypes="cc"
         inkscape:connector-curvature="0"
         id="path3010"
         d="m 28.1,1043.3622 -3,-3"
         style="fill:none;stroke:#cdcdcd;stroke-width:1px;stroke-linecap:round;stroke-linejoin:miter;stroke-opacity:1" />
    </g>
    <g
       transform="matrix(2.6900367,-1.5459146,1.5530934,2.6776027,-1590.7147,-1735.6805)"
       id="g3793"
       style="fill:none;stroke:#cdcdcd;stroke-opacity:1">
      <path
         style="fill:none;stroke:#cdcdcd;stroke-width:1px;stroke-linecap:round;stroke-linejoin:round;stroke-opacity:1"
         d="m 25.1,1050.3622 0,-10"
         id="path3795"
         inkscape:connector-curvature="0"
         sodipodi:nodetypes="cc" />
      <path
         style="fill:none;stroke:#cdcdcd;stroke-width:1px;stroke-linecap:round;stroke-linejoin:miter;stroke-opacity:1"
         d="m 22.1,1043.3622 3,-3"
         id="path3797"
         inkscape:connector-curvature="0"
         sodipodi:nodetypes="cc" />
      <path
         style="fill:none;stroke:#cdcdcd;stroke-width:1px;stroke-linecap:round;stroke-linejoin:miter;stroke-opacity:1"
         d="m 28.1,1043.3622 -3,-3"
         id="path3799"
         inkscape:connector-curvature="0"
         sodipodi:nodetypes="cc" />
    </g>
    <g
       id="g3801"
       transform="matrix(2.6900367,1.5459146,-1.5530934,2.6776027,1596.7428,-1813.2856)"
       style="fill:none;stroke:#cdcdcd;stroke-opacity:1">
      <path
         sodipodi:nodetypes="cc"
         inkscape:connector-curvature="0"
         id="path3803"
         d="m 25.1,1050.3622 0,-10"
         style="fill:none;stroke:#cdcdcd;stroke-width:1px;stroke-linecap:round;stroke-linejoin:round;stroke-opacity:1" />
      <path
         sodipodi:nodetypes="cc"
         inkscape:connector-curvature="0"
         id="path3805"
         d="m 22.1,1043.3622 3,-3"
         style="fill:none;stroke:#cdcdcd;stroke-width:1px;stroke-linecap:round;stroke-linejoin:miter;stroke-opacity:1" />
      <path
         sodipodi:nodetypes="cc"
         inkscape:connector-curvature="0"
         id="path3807"
         d="m 28.1,1043.3622 -3,-3"
         style="fill:none;stroke:#cdcdcd;stroke-width:1px;stroke-linecap:round;stroke-linejoin:miter;stroke-opacity:1" />
    </g>
    <g
       id="g3809"
       transform="matrix(1.5530934,-2.6776027,2.6900367,1.5459146,-2729.7839,-547.05194)"
       style="fill:none;stroke:#cdcdcd;stroke-opacity:1">
      <path
         sodipodi:nodetypes="cc"
         inkscape:connector-curvature="0"
         id="path3811"
         d="m 25.1,1050.3622 0,-10"
         style="fill:none;stroke:#cdcdcd;stroke-width:1px;stroke-linecap:round;stroke-linejoin:round;stroke-opacity:1" />
      <path
         sodipodi:nodetypes="cc"
         inkscape:connector-curvature="0"
         id="path3813"
         d="m 22.1,1043.3622 3,-3"
         style="fill:none;stroke:#cdcdcd;stroke-width:1px;stroke-linecap:round;stroke-linejoin:miter;stroke-opacity:1" />
      <path
         sodipodi:nodetypes="cc"
         inkscape:connector-curvature="0"
         id="path3815"
         d="m 28.1,1043.3622 -3,-3"
         style="fill:none;stroke:#cdcdcd;stroke-width:1px;stroke-linecap:round;stroke-linejoin:miter;stroke-opacity:1" />
    </g>
    <g
       transform="matrix(1.5530934,2.6776027,-2.6900367,1.5459146,2793.0797,-681.46885)"
       id="g3817"
       style="fill:none;stroke:#cdcdcd;stroke-opacity:1">
      <path
         style="fill:none;stroke:#cdcdcd;stroke-width:1px;stroke-linecap:round;stroke-linejoin:round;stroke-opacity:1"
         d="m 25.1,1050.3622 0,-10"
         id="path3819"
         inkscape:connector-curvature="0"
         sodipodi:nodetypes="cc" />
      <path
         style="fill:none;stroke:#cdcdcd;stroke-width:1px;stroke-linecap:round;stroke-linejoin:miter;stroke-opacity:1"
         d="m 22.1,1043.3622 3,-3"
         id="path3821"
         inkscape:connector-curvature="0"
         sodipodi:nodetypes="cc" />
      <path
         style="fill:none;stroke:#cdcdcd;stroke-width:1px;stroke-linecap:round;stroke-linejoin:miter;stroke-opacity:1"
         d="m 28.1,1043.3622 -3,-3"
         id="path3823"
         inkscape:connector-curvature="0"
         sodipodi:nodetypes="cc" />
    </g>
    <path
       transform="matrix(1.1093524,0,0,1.2534443,41.693817,916.33235)"
       d="M 47,29.5 C 47,39.717268 37.59798,48 26,48 14.40202,48 5,39.717268 5,29.5 5,19.282732 14.40202,11 26,11 c 11.59798,0 21,8.282732 21,18.5 z"
       sodipodi:ry="18.5"
       sodipodi:rx="21"
       sodipodi:cy="29.5"
       sodipodi:cx="26"
       id="path3825"
       style="fill:#000000;fill-opacity:0.05882353;stroke:none"
       sodipodi:type="arc" />
    <path
       sodipodi:type="arc"
       style="fill:#000000;fill-opacity:0.03137255;stroke:none"
       id="path3827"
       sodipodi:cx="26"
       sodipodi:cy="29.5"
       sodipodi:rx="21"
       sodipodi:ry="18.5"
       d="M 47,29.5 C 47,39.717268 37.59798,48 26,48 14.40202,48 5,39.717268 5,29.5 5,19.282732 14.40202,11 26,11 c 11.59798,0 21,8.282732 21,18.5 z"
       transform="matrix(0.59165463,0,0,0.66850366,55.15396,910.39944)" />
    <path
       transform="matrix(0.29582733,0,0,0.33425182,62.845467,907.89258)"
       d="M 47,29.5 C 47,39.717268 37.59798,48 26,48 14.40202,48 5,39.717268 5,29.5 5,19.282732 14.40202,11 26,11 c 11.59798,0 21,8.282732 21,18.5 z"
       sodipodi:ry="18.5"
       sodipodi:rx="21"
       sodipodi:cy="29.5"
       sodipodi:cx="26"
       id="path3829"
       style="fill:#000000;fill-opacity:0.01960784;stroke:none"
       sodipodi:type="arc" />
    <path
       sodipodi:type="arc"
       style="fill:#cdcdcd;fill-opacity:1;stroke:none"
       id="path3004"
       sodipodi:cx="26"
       sodipodi:cy="29.5"
       sodipodi:rx="21"
       sodipodi:ry="18.5"
       d="M 47,29.5 C 47,39.717268 37.59798,48 26,48 14.40202,48 5,39.717268 5,29.5 5,19.282732 14.40202,11 26,11 c 11.59798,0 21,8.282732 21,18.5 z"
       transform="matrix(1.4791366,0,0,1.671259,32.079429,927.1958)" />
  </g>
</svg>
