<?xml version="1.0" encoding="UTF-8" standalone="no"?>
<!-- Created with Inkscape (http://www.inkscape.org/) -->

<svg
   xmlns:dc="http://purl.org/dc/elements/1.1/"
   xmlns:cc="http://creativecommons.org/ns#"
   xmlns:rdf="http://www.w3.org/1999/02/22-rdf-syntax-ns#"
   xmlns:svg="http://www.w3.org/2000/svg"
   xmlns="http://www.w3.org/2000/svg"
   xmlns:sodipodi="http://sodipodi.sourceforge.net/DTD/sodipodi-0.dtd"
   xmlns:inkscape="http://www.inkscape.org/namespaces/inkscape"
   width="100"
   height="100"
   id="svg2"
   version="1.1"
   inkscape:version="0.48.2 r9819"
   sodipodi:docname="shop_item1-hd.svg"
   inkscape:export-filename="/Users/Victor/Documents/Custom/XCode/FALLING DOTS/Falling Dots 1.5.0/Falling Dots/Resources/shop_item1.png"
   inkscape:export-xdpi="90"
   inkscape:export-ydpi="90">
  <defs
     id="defs4" />
  <sodipodi:namedview
     id="base"
     pagecolor="#ffffff"
     bordercolor="#666666"
     borderopacity="1.0"
     inkscape:pageopacity="0.0"
     inkscape:pageshadow="2"
     inkscape:zoom="1"
     inkscape:cx="44.2"
     inkscape:cy="24.999954"
     inkscape:document-units="px"
     inkscape:current-layer="layer1"
     showgrid="false"
     inkscape:window-width="1280"
     inkscape:window-height="752"
     inkscape:window-x="0"
     inkscape:window-y="0"
     inkscape:window-maximized="1" />
  <metadata
     id="metadata7">
    <rdf:RDF>
      <cc:Work
         rdf:about="">
        <dc:format>image/svg+xml</dc:format>
        <dc:type
           rdf:resource="http://purl.org/dc/dcmitype/StillImage" />
        <dc:title></dc:title>
      </cc:Work>
    </rdf:RDF>
  </metadata>
  <g
     inkscape:label="Layer 1"
     inkscape:groupmode="layer"
     id="layer1"
     transform="translate(0,-952.3622)">
    <g
       id="g3850"
       transform="matrix(1.9999878,0,0,1.9907346,5.6564401e-5,-1042.8307)">
      <path
         transform="matrix(0.47619048,0,0,0.54054054,12.619048,1011.4163)"
         d="M 47,29.5 C 47,39.717268 37.59798,48 26,48 14.40202,48 5,39.717268 5,29.5 5,19.282732 14.40202,11 26,11 c 11.59798,0 21,8.282732 21,18.5 z"
         sodipodi:ry="18.5"
         sodipodi:rx="21"
         sodipodi:cy="29.5"
         sodipodi:cx="26"
         id="path3004"
         style="fill:#000000;fill-opacity:1;stroke:none"
         sodipodi:type="arc" />
      <g
         transform="translate(-0.1,0)"
         id="g3780">
        <path
           style="fill:none;stroke:#000000;stroke-width:1px;stroke-linecap:round;stroke-linejoin:round;stroke-opacity:1"
           d="m 25.1,1050.3622 0,-10"
           id="path3006"
           inkscape:connector-curvature="0"
           sodipodi:nodetypes="cc" />
        <path
           style="fill:none;stroke:#000000;stroke-width:1px;stroke-linecap:round;stroke-linejoin:miter;stroke-opacity:1"
           d="m 22.1,1043.3622 3,-3"
           id="path3008"
           inkscape:connector-curvature="0"
           sodipodi:nodetypes="cc" />
        <path
           style="fill:none;stroke:#000000;stroke-width:1px;stroke-linecap:round;stroke-linejoin:miter;stroke-opacity:1"
           d="m 28.1,1043.3622 -3,-3"
           id="path3010"
           inkscape:connector-curvature="0"
           sodipodi:nodetypes="cc" />
      </g>
      <g
         id="g3793"
         transform="matrix(0.8660254,-0.5,0.5,0.8660254,-509.82026,150.15391)">
        <path
           sodipodi:nodetypes="cc"
           inkscape:connector-curvature="0"
           id="path3795"
           d="m 25.1,1050.3622 0,-10"
           style="fill:none;stroke:#000000;stroke-width:1px;stroke-linecap:round;stroke-linejoin:round;stroke-opacity:1" />
        <path
           sodipodi:nodetypes="cc"
           inkscape:connector-curvature="0"
           id="path3797"
           d="m 22.1,1043.3622 3,-3"
           style="fill:none;stroke:#000000;stroke-width:1px;stroke-linecap:round;stroke-linejoin:miter;stroke-opacity:1" />
        <path
           sodipodi:nodetypes="cc"
           inkscape:connector-curvature="0"
           id="path3799"
           d="m 28.1,1043.3622 -3,-3"
           style="fill:none;stroke:#000000;stroke-width:1px;stroke-linecap:round;stroke-linejoin:miter;stroke-opacity:1" />
      </g>
      <g
         transform="matrix(0.8660254,0.5,-0.5,0.8660254,516.34386,125.05386)"
         id="g3801">
        <path
           style="fill:none;stroke:#000000;stroke-width:1px;stroke-linecap:round;stroke-linejoin:round;stroke-opacity:1"
           d="m 25.1,1050.3622 0,-10"
           id="path3803"
           inkscape:connector-curvature="0"
           sodipodi:nodetypes="cc" />
        <path
           style="fill:none;stroke:#000000;stroke-width:1px;stroke-linecap:round;stroke-linejoin:miter;stroke-opacity:1"
           d="m 22.1,1043.3622 3,-3"
           id="path3805"
           inkscape:connector-curvature="0"
           sodipodi:nodetypes="cc" />
        <path
           style="fill:none;stroke:#000000;stroke-width:1px;stroke-linecap:round;stroke-linejoin:miter;stroke-opacity:1"
           d="m 28.1,1043.3622 -3,-3"
           id="path3807"
           inkscape:connector-curvature="0"
           sodipodi:nodetypes="cc" />
      </g>
      <g
         transform="matrix(0.5,-0.8660254,0.8660254,0.5,-876.53009,534.59575)"
         id="g3809">
        <path
           style="fill:none;stroke:#000000;stroke-width:1px;stroke-linecap:round;stroke-linejoin:round;stroke-opacity:1"
           d="m 25.1,1050.3622 0,-10"
           id="path3811"
           inkscape:connector-curvature="0"
           sodipodi:nodetypes="cc" />
        <path
           style="fill:none;stroke:#000000;stroke-width:1px;stroke-linecap:round;stroke-linejoin:miter;stroke-opacity:1"
           d="m 22.1,1043.3622 3,-3"
           id="path3813"
           inkscape:connector-curvature="0"
           sodipodi:nodetypes="cc" />
        <path
           style="fill:none;stroke:#000000;stroke-width:1px;stroke-linecap:round;stroke-linejoin:miter;stroke-opacity:1"
           d="m 28.1,1043.3622 -3,-3"
           id="path3815"
           inkscape:connector-curvature="0"
           sodipodi:nodetypes="cc" />
      </g>
      <g
         id="g3817"
         transform="matrix(0.5,0.8660254,-0.8660254,0.5,901.49034,491.12086)">
        <path
           sodipodi:nodetypes="cc"
           inkscape:connector-curvature="0"
           id="path3819"
           d="m 25.1,1050.3622 0,-10"
           style="fill:none;stroke:#000000;stroke-width:1px;stroke-linecap:round;stroke-linejoin:round;stroke-opacity:1" />
        <path
           sodipodi:nodetypes="cc"
           inkscape:connector-curvature="0"
           id="path3821"
           d="m 22.1,1043.3622 3,-3"
           style="fill:none;stroke:#000000;stroke-width:1px;stroke-linecap:round;stroke-linejoin:miter;stroke-opacity:1" />
        <path
           sodipodi:nodetypes="cc"
           inkscape:connector-curvature="0"
           id="path3823"
           d="m 28.1,1043.3622 -3,-3"
           style="fill:none;stroke:#000000;stroke-width:1px;stroke-linecap:round;stroke-linejoin:miter;stroke-opacity:1" />
      </g>
      <path
         sodipodi:type="arc"
         style="fill:#000000;fill-opacity:0.49019608;stroke:none"
         id="path3825"
         sodipodi:cx="26"
         sodipodi:cy="29.5"
         sodipodi:rx="21"
         sodipodi:ry="18.5"
         d="M 47,29.5 C 47,39.717268 37.59798,48 26,48 14.40202,48 5,39.717268 5,29.5 5,19.282732 14.40202,11 26,11 c 11.59798,0 21,8.282732 21,18.5 z"
         transform="matrix(0.35714286,0,0,0.40540541,15.714286,1007.9027)" />
      <path
         transform="matrix(0.19047619,0,0,0.21621622,20.047619,1005.9838)"
         d="M 47,29.5 C 47,39.717268 37.59798,48 26,48 14.40202,48 5,39.717268 5,29.5 5,19.282732 14.40202,11 26,11 c 11.59798,0 21,8.282732 21,18.5 z"
         sodipodi:ry="18.5"
         sodipodi:rx="21"
         sodipodi:cy="29.5"
         sodipodi:cx="26"
         id="path3827"
         style="fill:#000000;fill-opacity:0.19607843;stroke:none"
         sodipodi:type="arc" />
      <path
         sodipodi:type="arc"
         style="fill:#000000;fill-opacity:0.07843137;stroke:none"
         id="path3829"
         sodipodi:cx="26"
         sodipodi:cy="29.5"
         sodipodi:rx="21"
         sodipodi:ry="18.5"
         d="M 47,29.5 C 47,39.717268 37.59798,48 26,48 14.40202,48 5,39.717268 5,29.5 5,19.282732 14.40202,11 26,11 c 11.59798,0 21,8.282732 21,18.5 z"
         transform="matrix(0.0952381,0,0,0.10810811,22.523809,1005.173)" />
    </g>
  </g>
</svg>
