<?xml version="1.0" encoding="UTF-8" standalone="no"?>
<!-- Created with Inkscape (http://www.inkscape.org/) -->

<svg
   xmlns:dc="http://purl.org/dc/elements/1.1/"
   xmlns:cc="http://creativecommons.org/ns#"
   xmlns:rdf="http://www.w3.org/1999/02/22-rdf-syntax-ns#"
   xmlns:svg="http://www.w3.org/2000/svg"
   xmlns="http://www.w3.org/2000/svg"
   xmlns:sodipodi="http://sodipodi.sourceforge.net/DTD/sodipodi-0.dtd"
   xmlns:inkscape="http://www.inkscape.org/namespaces/inkscape"
   width="140"
   height="140"
   id="svg2"
   version="1.1"
   inkscape:version="0.48.2 r9819"
   sodipodi:docname="shop_background_item3.svg"
   inkscape:export-filename="/Users/Victor/Documents/Custom/XCode/FALLING DOTS/Falling Dots 1.5.0/Falling Dots/Resources/shop_background_item3.png"
   inkscape:export-xdpi="90"
   inkscape:export-ydpi="90">
  <defs
     id="defs4" />
  <sodipodi:namedview
     id="base"
     pagecolor="#ffffff"
     bordercolor="#666666"
     borderopacity="1.0"
     inkscape:pageopacity="0.0"
     inkscape:pageshadow="2"
     inkscape:zoom="1"
     inkscape:cx="-29.5"
     inkscape:cy="67.500005"
     inkscape:document-units="px"
     inkscape:current-layer="layer1"
     showgrid="false"
     inkscape:window-width="1280"
     inkscape:window-height="752"
     inkscape:window-x="0"
     inkscape:window-y="0"
     inkscape:window-maximized="1" />
  <metadata
     id="metadata7">
    <rdf:RDF>
      <cc:Work
         rdf:about="">
        <dc:format>image/svg+xml</dc:format>
        <dc:type
           rdf:resource="http://purl.org/dc/dcmitype/StillImage" />
        <dc:title></dc:title>
      </cc:Work>
    </rdf:RDF>
  </metadata>
  <g
     inkscape:label="Layer 1"
     inkscape:groupmode="layer"
     id="layer1"
     transform="translate(0,-912.3622)">
    <path
       sodipodi:type="arc"
       style="fill:#f000f0;fill-opacity:0.19607843;stroke:none"
       id="path3939"
       sodipodi:cx="32"
       sodipodi:cy="31.4"
       sodipodi:rx="10.4"
       sodipodi:ry="12.6"
       d="m 42.4,31.4 a 10.4,12.6 0 1 1 -20.8,0 10.4,12.6 0 1 1 20.8,0 z"
       transform="matrix(2.2435898,0,0,1.8518533,-1.7948715,970.88065)" />
    <path
       transform="matrix(2.2435898,0,0,1.8518533,-1.7948715,924.21394)"
       d="m 42.4,31.4 a 10.4,12.6 0 1 1 -20.8,0 10.4,12.6 0 1 1 20.8,0 z"
       sodipodi:ry="12.6"
       sodipodi:rx="10.4"
       sodipodi:cy="31.4"
       sodipodi:cx="32"
       id="path3941"
       style="fill:#141414;fill-opacity:0.19607843;stroke:none"
       sodipodi:type="arc"
       inkscape:transform-center-x="-51.8"
       inkscape:transform-center-y="82.600065" />
    <path
       inkscape:transform-center-y="82.600195"
       inkscape:transform-center-x="-51.8"
       sodipodi:type="arc"
       style="fill:#f00000;fill-opacity:0.19607843;stroke:none"
       id="path3943"
       sodipodi:cx="32"
       sodipodi:cy="31.4"
       sodipodi:rx="10.4"
       sodipodi:ry="12.6"
       d="m 42.4,31.4 a 10.4,12.6 0 1 1 -20.8,0 10.4,12.6 0 1 1 20.8,0 z"
       transform="matrix(2.2435898,0,0,1.8518533,-1.7948715,877.54736)" />
    <path
       transform="matrix(2.2435898,0,0,1.8518533,-48.461539,924.21394)"
       d="m 42.4,31.4 a 10.4,12.6 0 1 1 -20.8,0 10.4,12.6 0 1 1 20.8,0 z"
       sodipodi:ry="12.6"
       sodipodi:rx="10.4"
       sodipodi:cy="31.4"
       sodipodi:cx="32"
       id="path3945"
       style="fill:#00f000;fill-opacity:0.19607843;stroke:none"
       sodipodi:type="arc"
       inkscape:transform-center-x="-51.8"
       inkscape:transform-center-y="82.60019" />
    <path
       inkscape:transform-center-y="82.600065"
       inkscape:transform-center-x="-51.8"
       sodipodi:type="arc"
       style="fill:#0000f0;fill-opacity:0.19607843;stroke:none"
       id="path3947"
       sodipodi:cx="32"
       sodipodi:cy="31.4"
       sodipodi:rx="10.4"
       sodipodi:ry="12.6"
       d="m 42.4,31.4 a 10.4,12.6 0 1 1 -20.8,0 10.4,12.6 0 1 1 20.8,0 z"
       transform="matrix(2.2435898,0,0,1.8518533,44.871794,924.21394)" />
    <path
       style="fill:none;stroke:#f0f0f0;stroke-width:7.5;stroke-linecap:round;stroke-linejoin:miter;stroke-miterlimit:4;stroke-opacity:1;stroke-dasharray:none"
       d="m 70,927.3622 0,110"
       id="path3949"
       inkscape:connector-curvature="0"
       sodipodi:nodetypes="cc" />
    <path
       sodipodi:nodetypes="cc"
       inkscape:connector-curvature="0"
       id="path3953"
       d="m 15,982.3622 110,0"
       style="fill:none;stroke:#f0f0f0;stroke-width:7.5;stroke-linecap:round;stroke-linejoin:miter;stroke-miterlimit:4;stroke-opacity:1;stroke-dasharray:none" />
  </g>
</svg>
