<?xml version="1.0" encoding="UTF-8" standalone="no"?>
<!-- Created with Inkscape (http://www.inkscape.org/) -->

<svg
   xmlns:dc="http://purl.org/dc/elements/1.1/"
   xmlns:cc="http://creativecommons.org/ns#"
   xmlns:rdf="http://www.w3.org/1999/02/22-rdf-syntax-ns#"
   xmlns:svg="http://www.w3.org/2000/svg"
   xmlns="http://www.w3.org/2000/svg"
   xmlns:sodipodi="http://sodipodi.sourceforge.net/DTD/sodipodi-0.dtd"
   xmlns:inkscape="http://www.inkscape.org/namespaces/inkscape"
   width="300"
   height="140"
   id="svg2"
   version="1.1"
   inkscape:version="0.48.2 r9819"
   sodipodi:docname="shop_background_diamondOwned.svg"
   inkscape:export-filename="/Users/Victor/Documents/Custom/XCode/FALLING DOTS/Falling Dots 1.5.0/Falling Dots/Resources/HD/shop_background_diamond-hd.png"
   inkscape:export-xdpi="90"
   inkscape:export-ydpi="90">
  <defs
     id="defs4" />
  <sodipodi:namedview
     id="base"
     pagecolor="#ffffff"
     bordercolor="#666666"
     borderopacity="1.0"
     inkscape:pageopacity="0.0"
     inkscape:pageshadow="2"
     inkscape:zoom="1"
     inkscape:cx="-43.8"
     inkscape:cy="54.99995"
     inkscape:document-units="px"
     inkscape:current-layer="layer1"
     showgrid="false"
     inkscape:window-width="1280"
     inkscape:window-height="752"
     inkscape:window-x="0"
     inkscape:window-y="0"
     inkscape:window-maximized="1" />
  <metadata
     id="metadata7">
    <rdf:RDF>
      <cc:Work
         rdf:about="">
        <dc:format>image/svg+xml</dc:format>
        <dc:type
           rdf:resource="http://purl.org/dc/dcmitype/StillImage" />
        <dc:title></dc:title>
      </cc:Work>
    </rdf:RDF>
  </metadata>
  <g
     inkscape:label="Layer 1"
     inkscape:groupmode="layer"
     id="layer1"
     transform="translate(0,-912.3622)">
    <rect
       ry="0"
       y="700.99384"
       x="-685.03857"
       height="31.910357"
       width="31.910357"
       id="rect4575"
       style="fill:#f000f0;fill-opacity:0.0627451;stroke:none"
       transform="matrix(0.70510028,-0.70910761,0.70510028,0.70910761,0,0)" />
    <rect
       style="fill:#ffcdff;fill-opacity:1;stroke:none"
       id="rect4577"
       width="47.865532"
       height="47.865532"
       x="-712.75977"
       y="712.75977"
       ry="0"
       transform="matrix(0.70510028,-0.70910761,0.70510028,0.70910761,0,0)" />
    <rect
       style="fill:#f000f0;fill-opacity:0.0627451;stroke:none"
       id="rect4579"
       width="19.943972"
       height="19.943972"
       x="-663.54266"
       y="691.46429"
       ry="0"
       transform="matrix(0.70510028,-0.70910761,0.70510028,0.70910761,0,0)" />
    <rect
       ry="0"
       y="688.13989"
       x="-648.25183"
       height="7.9775891"
       width="7.9775891"
       id="rect4581"
       style="fill:#f000f0;fill-opacity:0.0627451;stroke:none"
       transform="matrix(0.70510028,-0.70910761,0.70510028,0.70910761,0,0)" />
    <rect
       transform="matrix(0.70510028,-0.70910761,0.70510028,0.70910761,0,0)"
       style="fill:#f00000;fill-opacity:0.0627451;stroke:none"
       id="rect4567"
       width="31.910357"
       height="31.910357"
       x="-647.04877"
       y="738.9837"
       ry="0" />
    <rect
       transform="matrix(0.70510028,-0.70910761,0.70510028,0.70910761,0,0)"
       ry="0"
       y="750.74957"
       x="-674.7699"
       height="47.865532"
       width="47.865532"
       id="rect4569"
       style="fill:#ffcdcd;fill-opacity:1;stroke:none" />
    <rect
       transform="matrix(0.70510028,-0.70910761,0.70510028,0.70910761,0,0)"
       ry="0"
       y="729.45416"
       x="-625.55286"
       height="19.943972"
       width="19.943972"
       id="rect4571"
       style="fill:#f00000;fill-opacity:0.0627451;stroke:none" />
    <rect
       transform="matrix(0.70510028,-0.70910761,0.70510028,0.70910761,0,0)"
       style="fill:#f00000;fill-opacity:0.0627451;stroke:none"
       id="rect4573"
       width="7.9775891"
       height="7.9775891"
       x="-610.26196"
       y="726.1297"
       ry="0" />
    <rect
       ry="0"
       y="865.91602"
       x="-520.11646"
       height="31.910357"
       width="31.910357"
       id="rect4583"
       style="fill:#0000f0;fill-opacity:0.0627451;stroke:none"
       transform="matrix(0.70510028,-0.70910761,0.70510028,0.70910761,0,0)" />
    <rect
       style="fill:#cdcdff;fill-opacity:1;stroke:none"
       id="rect4585"
       width="47.865532"
       height="47.865532"
       x="-547.83759"
       y="877.68188"
       ry="0"
       transform="matrix(0.70510028,-0.70910761,0.70510028,0.70910761,0,0)" />
    <rect
       style="fill:#0000f0;fill-opacity:0.0627451;stroke:none"
       id="rect4587"
       width="19.943972"
       height="19.943972"
       x="-498.62054"
       y="856.38647"
       ry="0"
       transform="matrix(0.70510028,-0.70910761,0.70510028,0.70910761,0,0)" />
    <rect
       ry="0"
       y="853.06201"
       x="-483.32965"
       height="7.9775891"
       width="7.9775891"
       id="rect4589"
       style="fill:#0000f0;fill-opacity:0.0627451;stroke:none"
       transform="matrix(0.70510028,-0.70910761,0.70510028,0.70910761,0,0)" />
    <rect
       transform="matrix(0.70510028,-0.70910761,0.70510028,0.70910761,0,0)"
       style="fill:#00f000;fill-opacity:0.0627451;stroke:none"
       id="rect4591"
       width="31.910357"
       height="31.910357"
       x="-558.10626"
       y="827.92615"
       ry="0" />
    <rect
       transform="matrix(0.70510028,-0.70910761,0.70510028,0.70910761,0,0)"
       ry="0"
       y="839.69208"
       x="-585.82745"
       height="47.865532"
       width="47.865532"
       id="rect4593"
       style="fill:#cdffcd;fill-opacity:1;stroke:none" />
    <rect
       transform="matrix(0.70510028,-0.70910761,0.70510028,0.70910761,0,0)"
       ry="0"
       y="818.39661"
       x="-536.61035"
       height="19.943972"
       width="19.943972"
       id="rect4595"
       style="fill:#00f000;fill-opacity:0.0627451;stroke:none" />
    <rect
       transform="matrix(0.70510028,-0.70910761,0.70510028,0.70910761,0,0)"
       style="fill:#00f000;fill-opacity:0.0627451;stroke:none"
       id="rect4597"
       width="7.9775891"
       height="7.9775891"
       x="-521.31952"
       y="815.0722"
       ry="0" />
    <rect
       ry="0"
       y="770.09473"
       x="-597.96204"
       height="40"
       width="40"
       id="rect3814"
       style="fill:#000000;fill-opacity:0.09803922;stroke:none"
       transform="matrix(0.70710679,-0.70710678,0.70710679,0.70710678,0,0)" />
    <rect
       style="fill:#cdcdcd;fill-opacity:1;stroke:none"
       id="rect3025"
       width="60"
       height="60"
       x="-632.71075"
       y="784.84338"
       ry="0"
       transform="matrix(0.70710679,-0.70710678,0.70710679,0.70710678,0,0)" />
    <rect
       style="fill:#000000;fill-opacity:0.05882353;stroke:none"
       id="rect3816"
       width="25"
       height="25"
       x="-571.01666"
       y="758.14929"
       ry="0"
       transform="matrix(0.70710679,-0.70710678,0.70710679,0.70710678,0,0)" />
    <rect
       ry="0"
       y="753.98199"
       x="-551.8493"
       height="10"
       width="10"
       id="rect3818"
       style="fill:#000000;fill-opacity:0.03137255;stroke:none"
       transform="matrix(0.70710679,-0.70710678,0.70710679,0.70710678,0,0)" />
  </g>
</svg>
