<?xml version="1.0" encoding="UTF-8" standalone="no"?>
<!-- Created with Inkscape (http://www.inkscape.org/) -->

<svg
   xmlns:dc="http://purl.org/dc/elements/1.1/"
   xmlns:cc="http://creativecommons.org/ns#"
   xmlns:rdf="http://www.w3.org/1999/02/22-rdf-syntax-ns#"
   xmlns:svg="http://www.w3.org/2000/svg"
   xmlns="http://www.w3.org/2000/svg"
   xmlns:sodipodi="http://sodipodi.sourceforge.net/DTD/sodipodi-0.dtd"
   xmlns:inkscape="http://www.inkscape.org/namespaces/inkscape"
   width="100"
   height="100"
   id="svg2"
   version="1.1"
   inkscape:version="0.48.2 r9819"
   sodipodi:docname="shop_item3-hd.svg"
   inkscape:export-filename="/Users/Victor/Documents/Custom/XCode/FALLING DOTS/Falling Dots 1.5.0/Falling Dots/Resources/HD/shop_item3-hd.png"
   inkscape:export-xdpi="90"
   inkscape:export-ydpi="90">
  <defs
     id="defs4" />
  <sodipodi:namedview
     id="base"
     pagecolor="#ffffff"
     bordercolor="#666666"
     borderopacity="1.0"
     inkscape:pageopacity="0.0"
     inkscape:pageshadow="2"
     inkscape:zoom="1"
     inkscape:cx="27.5"
     inkscape:cy="27.500005"
     inkscape:document-units="px"
     inkscape:current-layer="layer1"
     showgrid="false"
     inkscape:window-width="1280"
     inkscape:window-height="752"
     inkscape:window-x="0"
     inkscape:window-y="0"
     inkscape:window-maximized="1" />
  <metadata
     id="metadata7">
    <rdf:RDF>
      <cc:Work
         rdf:about="">
        <dc:format>image/svg+xml</dc:format>
        <dc:type
           rdf:resource="http://purl.org/dc/dcmitype/StillImage" />
        <dc:title></dc:title>
      </cc:Work>
    </rdf:RDF>
  </metadata>
  <g
     inkscape:label="Layer 1"
     inkscape:groupmode="layer"
     id="layer1"
     transform="translate(0,-952.3622)">
    <path
       sodipodi:type="arc"
       style="fill:#f000f0;fill-opacity:1;stroke:none"
       id="path3939"
       sodipodi:cx="32"
       sodipodi:cy="31.4"
       sodipodi:rx="10.4"
       sodipodi:ry="12.6"
       d="m 42.4,31.4 a 10.4,12.6 0 1 1 -20.8,0 10.4,12.6 0 1 1 20.8,0 z"
       transform="matrix(1.4423077,0,0,1.1904772,3.8461525,994.98118)" />
    <path
       transform="matrix(1.4423077,0,0,1.1904772,3.8461525,964.98115)"
       d="m 42.4,31.4 a 10.4,12.6 0 1 1 -20.8,0 10.4,12.6 0 1 1 20.8,0 z"
       sodipodi:ry="12.6"
       sodipodi:rx="10.4"
       sodipodi:cy="31.4"
       sodipodi:cx="32"
       id="path3941"
       style="fill:#141414;fill-opacity:1;stroke:none"
       sodipodi:type="arc"
       inkscape:transform-center-x="-33.299999"
       inkscape:transform-center-y="53.100049" />
    <path
       inkscape:transform-center-y="53.100126"
       inkscape:transform-center-x="-33.299999"
       sodipodi:type="arc"
       style="fill:#f00000;fill-opacity:1;stroke:none"
       id="path3943"
       sodipodi:cx="32"
       sodipodi:cy="31.4"
       sodipodi:rx="10.4"
       sodipodi:ry="12.6"
       d="m 42.4,31.4 a 10.4,12.6 0 1 1 -20.8,0 10.4,12.6 0 1 1 20.8,0 z"
       transform="matrix(1.4423077,0,0,1.1904772,3.8461525,934.9812)" />
    <path
       transform="matrix(1.4423077,0,0,1.1904772,-26.153848,964.98115)"
       d="m 42.4,31.4 a 10.4,12.6 0 1 1 -20.8,0 10.4,12.6 0 1 1 20.8,0 z"
       sodipodi:ry="12.6"
       sodipodi:rx="10.4"
       sodipodi:cy="31.4"
       sodipodi:cx="32"
       id="path3945"
       style="fill:#00f000;fill-opacity:1;stroke:none"
       sodipodi:type="arc"
       inkscape:transform-center-x="-33.299999"
       inkscape:transform-center-y="53.100129" />
    <path
       inkscape:transform-center-y="53.100049"
       inkscape:transform-center-x="-33.299999"
       sodipodi:type="arc"
       style="fill:#0000f0;fill-opacity:1;stroke:none"
       id="path3947"
       sodipodi:cx="32"
       sodipodi:cy="31.4"
       sodipodi:rx="10.4"
       sodipodi:ry="12.6"
       d="m 42.4,31.4 a 10.4,12.6 0 1 1 -20.8,0 10.4,12.6 0 1 1 20.8,0 z"
       transform="matrix(1.4423077,0,0,1.1904772,33.846152,964.98115)" />
    <path
       style="fill:none;stroke:#f0f0f0;stroke-width:6;stroke-linecap:round;stroke-linejoin:miter;stroke-miterlimit:4;stroke-opacity:1;stroke-dasharray:none"
       d="m 50,968.3622 0,68"
       id="path3949"
       inkscape:connector-curvature="0"
       sodipodi:nodetypes="cc" />
    <path
       sodipodi:nodetypes="cc"
       inkscape:connector-curvature="0"
       id="path3953"
       d="m 16,1002.3622 68,0"
       style="fill:none;stroke:#f0f0f0;stroke-width:6;stroke-linecap:round;stroke-linejoin:miter;stroke-miterlimit:4;stroke-opacity:1;stroke-dasharray:none" />
  </g>
</svg>
