<?xml version="1.0" encoding="UTF-8" standalone="no"?>
<!-- Created with Inkscape (http://www.inkscape.org/) -->

<svg
   xmlns:dc="http://purl.org/dc/elements/1.1/"
   xmlns:cc="http://creativecommons.org/ns#"
   xmlns:rdf="http://www.w3.org/1999/02/22-rdf-syntax-ns#"
   xmlns:svg="http://www.w3.org/2000/svg"
   xmlns="http://www.w3.org/2000/svg"
   xmlns:sodipodi="http://sodipodi.sourceforge.net/DTD/sodipodi-0.dtd"
   xmlns:inkscape="http://www.inkscape.org/namespaces/inkscape"
   width="600"
   height="280"
   id="svg2"
   version="1.1"
   inkscape:version="0.48.2 r9819"
   sodipodi:docname="shop_background_starOwned-hd.svg"
   inkscape:export-filename="/Users/Victor/Documents/Custom/XCode/FALLING DOTS/Falling Dots 1.5.0/Falling Dots/Resources/HD/shop_background_starOwned-hd.png"
   inkscape:export-xdpi="90"
   inkscape:export-ydpi="90">
  <defs
     id="defs4" />
  <sodipodi:namedview
     id="base"
     pagecolor="#ffffff"
     bordercolor="#666666"
     borderopacity="1.0"
     inkscape:pageopacity="0.0"
     inkscape:pageshadow="2"
     inkscape:zoom="1"
     inkscape:cx="151.00001"
     inkscape:cy="66.999982"
     inkscape:document-units="px"
     inkscape:current-layer="layer1"
     showgrid="false"
     inkscape:window-width="1280"
     inkscape:window-height="752"
     inkscape:window-x="0"
     inkscape:window-y="0"
     inkscape:window-maximized="1" />
  <metadata
     id="metadata7">
    <rdf:RDF>
      <cc:Work
         rdf:about="">
        <dc:format>image/svg+xml</dc:format>
        <dc:type
           rdf:resource="http://purl.org/dc/dcmitype/StillImage" />
        <dc:title></dc:title>
      </cc:Work>
    </rdf:RDF>
  </metadata>
  <g
     inkscape:label="Layer 1"
     inkscape:groupmode="layer"
     id="layer1"
     transform="translate(0,-772.3622)">
    <path
       inkscape:transform-center-y="-3.8202058"
       inkscape:transform-center-x="-0.36749725"
       transform="matrix(1.8276343,0,0,1.9041924,-49.445661,932.55377)"
       d="m 204,1.9999997 -13.29281,-8.6443602 -13.76004,7.8794179 4.11357,-15.3134714 -11.74586,-10.6517 L 185.15,-25.55 l 6.5007,-14.462531 5.67308,14.806754 15.76351,1.713365 -12.32898,9.970963 z"
       inkscape:randomized="0"
       inkscape:rounded="0"
       inkscape:flatsided="false"
       sodipodi:arg2="1.5990646"
       sodipodi:arg1="0.97074611"
       sodipodi:r2="10.359778"
       sodipodi:r1="23.021729"
       sodipodi:cy="-17"
       sodipodi:cx="191"
       sodipodi:sides="5"
       id="path3900"
       style="fill:#000000;fill-opacity:0.09803922;stroke:none"
       sodipodi:type="star" />
    <path
       sodipodi:type="star"
       style="fill:#000000;fill-opacity:0.04705882;stroke:none"
       id="path3902"
       sodipodi:sides="5"
       sodipodi:cx="191"
       sodipodi:cy="-17"
       sodipodi:r1="23.021729"
       sodipodi:r2="10.359778"
       sodipodi:arg1="0.97074611"
       sodipodi:arg2="1.5990646"
       inkscape:flatsided="false"
       inkscape:rounded="0"
       inkscape:randomized="0"
       d="m 204,1.9999997 -13.29281,-8.6443602 -13.76004,7.8794179 4.11357,-15.3134714 -11.74586,-10.6517 L 185.15,-25.55 l 6.5007,-14.462531 5.67308,14.806754 15.76351,1.713365 -12.32898,9.970963 z"
       transform="matrix(1.3707257,0,0,1.4281443,37.915759,879.50589)"
       inkscape:transform-center-x="-0.27561785"
       inkscape:transform-center-y="-2.8651495" />
    <path
       inkscape:transform-center-y="-1.5280774"
       inkscape:transform-center-x="-0.14699717"
       transform="matrix(0.73105372,0,0,0.76167698,160.22173,834.83886)"
       d="m 204,1.9999997 -13.29281,-8.6443602 -13.76004,7.8794179 4.11357,-15.3134714 -11.74586,-10.6517 L 185.15,-25.55 l 6.5007,-14.462531 5.67308,14.806754 15.76351,1.713365 -12.32898,9.970963 z"
       inkscape:randomized="0"
       inkscape:rounded="0"
       inkscape:flatsided="false"
       sodipodi:arg2="1.5990646"
       sodipodi:arg1="0.97074611"
       sodipodi:r2="10.359778"
       sodipodi:r1="23.021729"
       sodipodi:cy="-17"
       sodipodi:cx="191"
       sodipodi:sides="5"
       id="path3904"
       style="fill:#000000;fill-opacity:0.03137255;stroke:none"
       sodipodi:type="star" />
    <path
       sodipodi:type="star"
       style="fill:#cdcdcd;fill-opacity:1;stroke:none"
       id="path3898"
       sodipodi:sides="5"
       sodipodi:cx="191"
       sodipodi:cy="-17"
       sodipodi:r1="23.021729"
       sodipodi:r2="10.359778"
       sodipodi:arg1="0.97074611"
       sodipodi:arg2="1.5990646"
       inkscape:flatsided="false"
       inkscape:rounded="0"
       inkscape:randomized="0"
       d="m 204,1.9999997 -13.29281,-8.6443602 -13.76004,7.8794179 4.11357,-15.3134714 -11.74586,-10.6517 L 185.15,-25.55 l 6.5007,-14.462531 5.67308,14.806754 15.76351,1.713365 -12.32898,9.970963 z"
       transform="matrix(3.1983599,0,0,3.3323368,-311.52987,1025.6976)"
       inkscape:transform-center-x="-0.64311498"
       inkscape:transform-center-y="-6.6854599" />
    <path
       sodipodi:type="star"
       style="fill:#f00000;fill-opacity:0.05882353;stroke:none"
       id="path3077"
       sodipodi:sides="5"
       sodipodi:cx="191"
       sodipodi:cy="-17"
       sodipodi:r1="23.021729"
       sodipodi:r2="10.359778"
       sodipodi:arg1="0.97074611"
       sodipodi:arg2="1.5990646"
       inkscape:flatsided="false"
       inkscape:rounded="0"
       inkscape:randomized="0"
       d="m 204,1.9999997 -13.29281,-8.6443602 -13.76004,7.8794179 4.11357,-15.3134714 -11.74586,-10.6517 L 185.15,-25.55 l 6.5007,-14.462531 5.67308,14.806754 15.76351,1.713365 -12.32898,9.970963 z"
       transform="matrix(1.4621075,0,0,1.5233534,-93.556543,952.51534)"
       inkscape:transform-center-x="-0.29399926"
       inkscape:transform-center-y="-3.0561608" />
    <path
       inkscape:transform-center-y="-2.2921162"
       inkscape:transform-center-x="-0.22049633"
       transform="matrix(1.0965806,0,0,1.142515,-23.667402,910.07705)"
       d="m 204,1.9999997 -13.29281,-8.6443602 -13.76004,7.8794179 4.11357,-15.3134714 -11.74586,-10.6517 L 185.15,-25.55 l 6.5007,-14.462531 5.67308,14.806754 15.76351,1.713365 -12.32898,9.970963 z"
       inkscape:randomized="0"
       inkscape:rounded="0"
       inkscape:flatsided="false"
       sodipodi:arg2="1.5990646"
       sodipodi:arg1="0.97074611"
       sodipodi:r2="10.359778"
       sodipodi:r1="23.021729"
       sodipodi:cy="-17"
       sodipodi:cx="191"
       sodipodi:sides="5"
       id="path3079"
       style="fill:#f00000;fill-opacity:0.05882353;stroke:none"
       sodipodi:type="star" />
    <path
       sodipodi:type="star"
       style="fill:#f00000;fill-opacity:0.05882353;stroke:none"
       id="path3081"
       sodipodi:sides="5"
       sodipodi:cx="191"
       sodipodi:cy="-17"
       sodipodi:r1="23.021729"
       sodipodi:r2="10.359778"
       sodipodi:arg1="0.97074611"
       sodipodi:arg2="1.5990646"
       inkscape:flatsided="false"
       inkscape:rounded="0"
       inkscape:randomized="0"
       d="m 204,1.9999997 -13.29281,-8.6443602 -13.76004,7.8794179 4.11357,-15.3134714 -11.74586,-10.6517 L 185.15,-25.55 l 6.5007,-14.462531 5.67308,14.806754 15.76351,1.713365 -12.32898,9.970963 z"
       transform="matrix(0.584843,0,0,0.60934137,74.177376,874.34343)"
       inkscape:transform-center-x="-0.11759932"
       inkscape:transform-center-y="-1.2224686" />
    <path
       inkscape:transform-center-y="-5.3482962"
       inkscape:transform-center-x="-0.51451661"
       transform="matrix(2.5586881,0,0,2.6658685,-303.22391,1027.0304)"
       d="m 204,1.9999997 -13.29281,-8.6443602 -13.76004,7.8794179 4.11357,-15.3134714 -11.74586,-10.6517 L 185.15,-25.55 l 6.5007,-14.462531 5.67308,14.806754 15.76351,1.713365 -12.32898,9.970963 z"
       inkscape:randomized="0"
       inkscape:rounded="0"
       inkscape:flatsided="false"
       sodipodi:arg2="1.5990646"
       sodipodi:arg1="0.97074611"
       sodipodi:r2="10.359778"
       sodipodi:r1="23.021729"
       sodipodi:cy="-17"
       sodipodi:cx="191"
       sodipodi:sides="5"
       id="path3083"
       style="fill:#ffcdcd;fill-opacity:1;stroke:none"
       sodipodi:type="star" />
    <path
       inkscape:transform-center-y="-3.0561608"
       inkscape:transform-center-x="-0.29399564"
       transform="matrix(1.4621075,0,0,1.5233534,-213.55655,952.51534)"
       d="m 204,1.9999997 -13.29281,-8.6443602 -13.76004,7.8794179 4.11357,-15.3134714 -11.74586,-10.6517 L 185.15,-25.55 l 6.5007,-14.462531 5.67308,14.806754 15.76351,1.713365 -12.32898,9.970963 z"
       inkscape:randomized="0"
       inkscape:rounded="0"
       inkscape:flatsided="false"
       sodipodi:arg2="1.5990646"
       sodipodi:arg1="0.97074611"
       sodipodi:r2="10.359778"
       sodipodi:r1="23.021729"
       sodipodi:cy="-17"
       sodipodi:cx="191"
       sodipodi:sides="5"
       id="path3853"
       style="fill:#f000f0;fill-opacity:0.05882353;stroke:none"
       sodipodi:type="star" />
    <path
       sodipodi:type="star"
       style="fill:#f000f0;fill-opacity:0.05882353;stroke:none"
       id="path3855"
       sodipodi:sides="5"
       sodipodi:cx="191"
       sodipodi:cy="-17"
       sodipodi:r1="23.021729"
       sodipodi:r2="10.359778"
       sodipodi:arg1="0.97074611"
       sodipodi:arg2="1.5990646"
       inkscape:flatsided="false"
       inkscape:rounded="0"
       inkscape:randomized="0"
       d="m 204,1.9999997 -13.29281,-8.6443602 -13.76004,7.8794179 4.11357,-15.3134714 -11.74586,-10.6517 L 185.15,-25.55 l 6.5007,-14.462531 5.67308,14.806754 15.76351,1.713365 -12.32898,9.970963 z"
       transform="matrix(1.0965806,0,0,1.142515,-143.66741,910.07705)"
       inkscape:transform-center-x="-0.22049231"
       inkscape:transform-center-y="-2.2921162" />
    <path
       inkscape:transform-center-y="-1.2224686"
       inkscape:transform-center-x="-0.1175997"
       transform="matrix(0.584843,0,0,0.60934137,-45.822627,874.34343)"
       d="m 204,1.9999997 -13.29281,-8.6443602 -13.76004,7.8794179 4.11357,-15.3134714 -11.74586,-10.6517 L 185.15,-25.55 l 6.5007,-14.462531 5.67308,14.806754 15.76351,1.713365 -12.32898,9.970963 z"
       inkscape:randomized="0"
       inkscape:rounded="0"
       inkscape:flatsided="false"
       sodipodi:arg2="1.5990646"
       sodipodi:arg1="0.97074611"
       sodipodi:r2="10.359778"
       sodipodi:r1="23.021729"
       sodipodi:cy="-17"
       sodipodi:cx="191"
       sodipodi:sides="5"
       id="path3857"
       style="fill:#f000f0;fill-opacity:0.05882353;stroke:none"
       sodipodi:type="star" />
    <path
       sodipodi:type="star"
       style="fill:#ffcdff;fill-opacity:1;stroke:none"
       id="path3859"
       sodipodi:sides="5"
       sodipodi:cx="191"
       sodipodi:cy="-17"
       sodipodi:r1="23.021729"
       sodipodi:r2="10.359778"
       sodipodi:arg1="0.97074611"
       sodipodi:arg2="1.5990646"
       inkscape:flatsided="false"
       inkscape:rounded="0"
       inkscape:randomized="0"
       d="m 204,1.9999997 -13.29281,-8.6443602 -13.76004,7.8794179 4.11357,-15.3134714 -11.74586,-10.6517 L 185.15,-25.55 l 6.5007,-14.462531 5.67308,14.806754 15.76351,1.713365 -12.32898,9.970963 z"
       transform="matrix(2.5586881,0,0,2.6658685,-423.22391,1027.0304)"
       inkscape:transform-center-x="-0.51451999"
       inkscape:transform-center-y="-5.3482962" />
    <path
       inkscape:transform-center-y="-3.0561608"
       inkscape:transform-center-x="-0.29400244"
       transform="matrix(1.4621075,0,0,1.5233534,254.44345,952.51534)"
       d="m 204,1.9999997 -13.29281,-8.6443602 -13.76004,7.8794179 4.11357,-15.3134714 -11.74586,-10.6517 L 185.15,-25.55 l 6.5007,-14.462531 5.67308,14.806754 15.76351,1.713365 -12.32898,9.970963 z"
       inkscape:randomized="0"
       inkscape:rounded="0"
       inkscape:flatsided="false"
       sodipodi:arg2="1.5990646"
       sodipodi:arg1="0.97074611"
       sodipodi:r2="10.359778"
       sodipodi:r1="23.021729"
       sodipodi:cy="-17"
       sodipodi:cx="191"
       sodipodi:sides="5"
       id="path3879"
       style="fill:#0000f0;fill-opacity:0.05882353;stroke:none"
       sodipodi:type="star" />
    <path
       sodipodi:type="star"
       style="fill:#0000f0;fill-opacity:0.05882353;stroke:none"
       id="path3881"
       sodipodi:sides="5"
       sodipodi:cx="191"
       sodipodi:cy="-17"
       sodipodi:r1="23.021729"
       sodipodi:r2="10.359778"
       sodipodi:arg1="0.97074611"
       sodipodi:arg2="1.5990646"
       inkscape:flatsided="false"
       inkscape:rounded="0"
       inkscape:randomized="0"
       d="m 204,1.9999997 -13.29281,-8.6443602 -13.76004,7.8794179 4.11357,-15.3134714 -11.74586,-10.6517 L 185.15,-25.55 l 6.5007,-14.462531 5.67308,14.806754 15.76351,1.713365 -12.32898,9.970963 z"
       transform="matrix(1.0965806,0,0,1.142515,324.33259,910.07711)"
       inkscape:transform-center-x="-0.22049711"
       inkscape:transform-center-y="-2.2921162" />
    <path
       inkscape:transform-center-y="-1.2224686"
       inkscape:transform-center-x="-0.1175975"
       transform="matrix(0.584843,0,0,0.60934137,422.17737,874.34349)"
       d="m 204,1.9999997 -13.29281,-8.6443602 -13.76004,7.8794179 4.11357,-15.3134714 -11.74586,-10.6517 L 185.15,-25.55 l 6.5007,-14.462531 5.67308,14.806754 15.76351,1.713365 -12.32898,9.970963 z"
       inkscape:randomized="0"
       inkscape:rounded="0"
       inkscape:flatsided="false"
       sodipodi:arg2="1.5990646"
       sodipodi:arg1="0.97074611"
       sodipodi:r2="10.359778"
       sodipodi:r1="23.021729"
       sodipodi:cy="-17"
       sodipodi:cx="191"
       sodipodi:sides="5"
       id="path3883"
       style="fill:#0000f0;fill-opacity:0.05882353;stroke:none"
       sodipodi:type="star" />
    <path
       sodipodi:type="star"
       style="fill:#cdcdff;fill-opacity:1;stroke:none"
       id="path3885"
       sodipodi:sides="5"
       sodipodi:cx="191"
       sodipodi:cy="-17"
       sodipodi:r1="23.021729"
       sodipodi:r2="10.359778"
       sodipodi:arg1="0.97074611"
       sodipodi:arg2="1.5990646"
       inkscape:flatsided="false"
       inkscape:rounded="0"
       inkscape:randomized="0"
       d="m 204,1.9999997 -13.29281,-8.6443602 -13.76004,7.8794179 4.11357,-15.3134714 -11.74586,-10.6517 L 185.15,-25.55 l 6.5007,-14.462531 5.67308,14.806754 15.76351,1.713365 -12.32898,9.970963 z"
       transform="matrix(2.5586881,0,0,2.6658685,44.776081,1027.0304)"
       inkscape:transform-center-x="-0.51451779"
       inkscape:transform-center-y="-5.3482962" />
    <path
       sodipodi:type="star"
       style="fill:#00f000;fill-opacity:0.05882353;stroke:none"
       id="path3887"
       sodipodi:sides="5"
       sodipodi:cx="191"
       sodipodi:cy="-17"
       sodipodi:r1="23.021729"
       sodipodi:r2="10.359778"
       sodipodi:arg1="0.97074611"
       sodipodi:arg2="1.5990646"
       inkscape:flatsided="false"
       inkscape:rounded="0"
       inkscape:randomized="0"
       d="m 204,1.9999997 -13.29281,-8.6443602 -13.76004,7.8794179 4.11357,-15.3134714 -11.74586,-10.6517 L 185.15,-25.55 l 6.5007,-14.462531 5.67308,14.806754 15.76351,1.713365 -12.32898,9.970963 z"
       transform="matrix(1.4621075,0,0,1.5233534,134.44344,952.51534)"
       inkscape:transform-center-x="-0.29399583"
       inkscape:transform-center-y="-3.0561608" />
    <path
       inkscape:transform-center-y="-2.2921162"
       inkscape:transform-center-x="-0.2205005"
       transform="matrix(1.0965806,0,0,1.142515,204.33259,910.07711)"
       d="m 204,1.9999997 -13.29281,-8.6443602 -13.76004,7.8794179 4.11357,-15.3134714 -11.74586,-10.6517 L 185.15,-25.55 l 6.5007,-14.462531 5.67308,14.806754 15.76351,1.713365 -12.32898,9.970963 z"
       inkscape:randomized="0"
       inkscape:rounded="0"
       inkscape:flatsided="false"
       sodipodi:arg2="1.5990646"
       sodipodi:arg1="0.97074611"
       sodipodi:r2="10.359778"
       sodipodi:r1="23.021729"
       sodipodi:cy="-17"
       sodipodi:cx="191"
       sodipodi:sides="5"
       id="path3889"
       style="fill:#00f000;fill-opacity:0.05882353;stroke:none"
       sodipodi:type="star" />
    <path
       sodipodi:type="star"
       style="fill:#00f000;fill-opacity:0.05882353;stroke:none"
       id="path3891"
       sodipodi:sides="5"
       sodipodi:cx="191"
       sodipodi:cy="-17"
       sodipodi:r1="23.021729"
       sodipodi:r2="10.359778"
       sodipodi:arg1="0.97074611"
       sodipodi:arg2="1.5990646"
       inkscape:flatsided="false"
       inkscape:rounded="0"
       inkscape:randomized="0"
       d="m 204,1.9999997 -13.29281,-8.6443602 -13.76004,7.8794179 4.11357,-15.3134714 -11.74586,-10.6517 L 185.15,-25.55 l 6.5007,-14.462531 5.67308,14.806754 15.76351,1.713365 -12.32898,9.970963 z"
       transform="matrix(0.584843,0,0,0.60934137,302.17737,874.34349)"
       inkscape:transform-center-x="-0.11760089"
       inkscape:transform-center-y="-1.2224686" />
    <path
       inkscape:transform-center-y="-5.3482962"
       inkscape:transform-center-x="-0.51451818"
       transform="matrix(2.5586881,0,0,2.6658685,-75.223922,1027.0304)"
       d="m 204,1.9999997 -13.29281,-8.6443602 -13.76004,7.8794179 4.11357,-15.3134714 -11.74586,-10.6517 L 185.15,-25.55 l 6.5007,-14.462531 5.67308,14.806754 15.76351,1.713365 -12.32898,9.970963 z"
       inkscape:randomized="0"
       inkscape:rounded="0"
       inkscape:flatsided="false"
       sodipodi:arg2="1.5990646"
       sodipodi:arg1="0.97074611"
       sodipodi:r2="10.359778"
       sodipodi:r1="23.021729"
       sodipodi:cy="-17"
       sodipodi:cx="191"
       sodipodi:sides="5"
       id="path3893"
       style="fill:#cdffcd;fill-opacity:1;stroke:none"
       sodipodi:type="star" />
  </g>
</svg>
