<?xml version="1.0" encoding="UTF-8" standalone="no"?>
<!-- Created with Inkscape (http://www.inkscape.org/) -->

<svg
   xmlns:dc="http://purl.org/dc/elements/1.1/"
   xmlns:cc="http://creativecommons.org/ns#"
   xmlns:rdf="http://www.w3.org/1999/02/22-rdf-syntax-ns#"
   xmlns:svg="http://www.w3.org/2000/svg"
   xmlns="http://www.w3.org/2000/svg"
   xmlns:sodipodi="http://sodipodi.sourceforge.net/DTD/sodipodi-0.dtd"
   xmlns:inkscape="http://www.inkscape.org/namespaces/inkscape"
   width="640"
   height="1136"
   id="svg2"
   version="1.1"
   inkscape:version="0.48.5 r10040"
   sodipodi:docname="splashScreen-568hd.svg"
   inkscape:export-filename="/Users/victorzhou/Documents/Custom/XCode/FALLING DOTS/Falling Dots 2.4/Falling Dots/Resources/Default-568h@2x.png"
   inkscape:export-xdpi="90"
   inkscape:export-ydpi="90">
  <defs
     id="defs4" />
  <sodipodi:namedview
     id="base"
     pagecolor="#ffffff"
     bordercolor="#666666"
     borderopacity="1.0"
     inkscape:pageopacity="0.0"
     inkscape:pageshadow="2"
     inkscape:zoom="0.49119718"
     inkscape:cx="320"
     inkscape:cy="568"
     inkscape:document-units="px"
     inkscape:current-layer="layer1"
     showgrid="false"
     inkscape:window-width="1440"
     inkscape:window-height="851"
     inkscape:window-x="0"
     inkscape:window-y="0"
     inkscape:window-maximized="1" />
  <metadata
     id="metadata7">
    <rdf:RDF>
      <cc:Work
         rdf:about="">
        <dc:format>image/svg+xml</dc:format>
        <dc:type
           rdf:resource="http://purl.org/dc/dcmitype/StillImage" />
        <dc:title></dc:title>
      </cc:Work>
    </rdf:RDF>
  </metadata>
  <g
     inkscape:label="Layer 1"
     inkscape:groupmode="layer"
     id="layer1"
     transform="translate(0,83.63782)">
    <rect
       style="fill:#000000;fill-opacity:1;stroke:none"
       id="rect2985"
       width="640"
       height="1136"
       x="0"
       y="-83.637817" />
    <text
       xml:space="preserve"
       style="font-size:14px;font-style:normal;font-variant:normal;font-weight:normal;font-stretch:normal;text-align:center;line-height:125%;letter-spacing:0px;word-spacing:0px;text-anchor:middle;fill:#000000;fill-opacity:1;stroke:none;font-family:Eurostile;-inkscape-font-specification:Eurostile"
       x="320.50156"
       y="1052.1981"
       id="text3840"
       sodipodi:linespacing="125%"><tspan
         sodipodi:role="line"
         id="tspan3842"
         x="320.50156"
         y="1052.1981"
         style="font-size:28px;font-weight:bold;text-align:center;text-anchor:middle;fill:#ffffff;-inkscape-font-specification:Eurostile Bold">Victor Zhou Games</tspan></text>
    <text
       xml:space="preserve"
       style="font-size:14px;font-style:normal;font-variant:normal;font-weight:normal;font-stretch:normal;text-align:center;line-height:125%;letter-spacing:0px;word-spacing:0px;text-anchor:middle;fill:#000000;fill-opacity:1;stroke:none;font-family:Eurostile;-inkscape-font-specification:Eurostile"
       x="320"
       y="270.36221"
       id="text3008"
       sodipodi:linespacing="125%"><tspan
         sodipodi:role="line"
         id="tspan3010"
         x="320"
         y="270.36221"
         style="font-size:80px;font-weight:bold;fill:#ffffff;-inkscape-font-specification:Eurostile Bold">L O A D I N G</tspan></text>
    <path
       sodipodi:type="arc"
       style="fill:#f0f0f0;fill-opacity:1;stroke:none"
       id="path3798"
       sodipodi:cx="-46.400002"
       sodipodi:cy="3.9000001"
       sodipodi:rx="8.1999998"
       sodipodi:ry="2.7"
       d="m -38.200002,3.9000001 c 0,1.4911688 -3.671265,2.7 -8.2,2.7 -4.528734,0 -8.199999,-1.2088312 -8.199999,-2.7 0,-1.4911689 3.671265,-2.7000001 8.199999,-2.7000001 4.528735,0 8.2,1.2088312 8.2,2.7000001 z"
       transform="matrix(4.8780488,0,0,14.814815,456.34148,410.5844)" />
    <path
       sodipodi:type="arc"
       style="fill:#f0f0f0;fill-opacity:1;stroke:none"
       id="path3798-7"
       sodipodi:cx="-46.400002"
       sodipodi:cy="3.9000001"
       sodipodi:rx="8.1999998"
       sodipodi:ry="2.7"
       d="m -38.200002,3.9000001 c 0,1.4911688 -3.671265,2.7 -8.2,2.7 -4.528734,0 -8.199999,-1.2088312 -8.199999,-2.7 0,-1.4911689 3.671265,-2.7000001 8.199999,-2.7000001 4.528735,0 8.2,1.2088312 8.2,2.7000001 z"
       transform="matrix(4.8780488,0,0,14.814815,546.34148,336.5844)" />
    <path
       sodipodi:type="arc"
       style="fill:#f0f0f0;fill-opacity:1;stroke:none"
       id="path3798-6"
       sodipodi:cx="-46.400002"
       sodipodi:cy="3.9000001"
       sodipodi:rx="8.1999998"
       sodipodi:ry="2.7"
       d="m -38.200002,3.9000001 c 0,1.4911688 -3.671265,2.7 -8.2,2.7 -4.528734,0 -8.199999,-1.2088312 -8.199999,-2.7 0,-1.4911689 3.671265,-2.7000001 8.199999,-2.7000001 4.528735,0 8.2,1.2088312 8.2,2.7000001 z"
       transform="matrix(4.8780488,0,0,14.814815,494.34146,512.5844)" />
    <path
       sodipodi:type="arc"
       style="fill:#f0f0f0;fill-opacity:1;stroke:none"
       id="path3798-2"
       sodipodi:cx="-46.400002"
       sodipodi:cy="3.9000001"
       sodipodi:rx="8.1999998"
       sodipodi:ry="2.7"
       d="m -38.200002,3.9000001 c 0,1.4911688 -3.671265,2.7 -8.2,2.7 -4.528734,0 -8.199999,-1.2088312 -8.199999,-2.7 0,-1.4911689 3.671265,-2.7000001 8.199999,-2.7000001 4.528735,0 8.2,1.2088312 8.2,2.7000001 z"
       transform="matrix(4.8780488,0,0,14.814815,636.34148,410.5844)" />
    <path
       sodipodi:type="arc"
       style="fill:#f0f0f0;fill-opacity:1;stroke:none"
       id="path3798-1"
       sodipodi:cx="-46.400002"
       sodipodi:cy="3.9000001"
       sodipodi:rx="8.1999998"
       sodipodi:ry="2.7"
       d="m -38.200002,3.9000001 c 0,1.4911688 -3.671265,2.7 -8.2,2.7 -4.528734,0 -8.199999,-1.2088312 -8.199999,-2.7 0,-1.4911689 3.671265,-2.7000001 8.199999,-2.7000001 4.528735,0 8.2,1.2088312 8.2,2.7000001 z"
       transform="matrix(4.8780488,0,0,14.814815,598.34146,512.5844)" />
  </g>
</svg>
