<?xml version="1.0" encoding="UTF-8" standalone="no"?>
<!-- Created with Inkscape (http://www.inkscape.org/) -->

<svg
   xmlns:dc="http://purl.org/dc/elements/1.1/"
   xmlns:cc="http://creativecommons.org/ns#"
   xmlns:rdf="http://www.w3.org/1999/02/22-rdf-syntax-ns#"
   xmlns:svg="http://www.w3.org/2000/svg"
   xmlns="http://www.w3.org/2000/svg"
   xmlns:sodipodi="http://sodipodi.sourceforge.net/DTD/sodipodi-0.dtd"
   xmlns:inkscape="http://www.inkscape.org/namespaces/inkscape"
   width="320"
   height="480"
   id="svg2"
   version="1.1"
   inkscape:version="0.48.5 r10040"
   sodipodi:docname="splashScreen.svg"
   inkscape:export-filename="/Users/victorzhou/Documents/Custom/XCode/FALLING DOTS/Falling Dots 2.4/Falling Dots/Resources/Default.png"
   inkscape:export-xdpi="90"
   inkscape:export-ydpi="90">
  <defs
     id="defs4" />
  <sodipodi:namedview
     id="base"
     pagecolor="#ffffff"
     bordercolor="#666666"
     borderopacity="1.0"
     inkscape:pageopacity="0.0"
     inkscape:pageshadow="2"
     inkscape:zoom="1"
     inkscape:cx="160"
     inkscape:cy="255.91396"
     inkscape:document-units="px"
     inkscape:current-layer="layer1"
     showgrid="false"
     inkscape:window-width="1280"
     inkscape:window-height="752"
     inkscape:window-x="-1"
     inkscape:window-y="16"
     inkscape:window-maximized="0" />
  <metadata
     id="metadata7">
    <rdf:RDF>
      <cc:Work
         rdf:about="">
        <dc:format>image/svg+xml</dc:format>
        <dc:type
           rdf:resource="http://purl.org/dc/dcmitype/StillImage" />
        <dc:title></dc:title>
      </cc:Work>
    </rdf:RDF>
  </metadata>
  <g
     inkscape:label="Layer 1"
     inkscape:groupmode="layer"
     id="layer1"
     transform="translate(0,-572.36218)">
    <rect
       style="fill:#000000;fill-opacity:1;stroke:none"
       id="rect2985"
       width="320"
       height="480"
       x="0"
       y="572.36218" />
    <text
       xml:space="preserve"
       style="font-size:7px;font-style:normal;font-variant:normal;font-weight:normal;font-stretch:normal;text-align:center;line-height:125%;letter-spacing:0px;word-spacing:0px;text-anchor:middle;fill:#000000;fill-opacity:1;stroke:none;font-family:Eurostile;-inkscape-font-specification:Eurostile"
       x="160.25078"
       y="1052.2802"
       id="text3840"
       sodipodi:linespacing="125%"><tspan
         sodipodi:role="line"
         id="tspan3842"
         x="160.25078"
         y="1052.2802"
         style="font-size:14px;font-weight:bold;text-align:center;text-anchor:middle;fill:#ffffff;-inkscape-font-specification:Eurostile Bold">Victor Zhou Games</tspan></text>
    <text
       xml:space="preserve"
       style="font-size:7px;font-style:normal;font-variant:normal;font-weight:normal;font-stretch:normal;text-align:center;line-height:125%;letter-spacing:0px;word-spacing:0px;text-anchor:middle;fill:#000000;fill-opacity:1;stroke:none;font-family:Eurostile;-inkscape-font-specification:Eurostile"
       x="160"
       y="705.36218"
       id="text3008"
       sodipodi:linespacing="125%"><tspan
         sodipodi:role="line"
         id="tspan3010"
         x="160"
         y="705.36218"
         style="font-size:40px;font-weight:bold;fill:#ffffff;-inkscape-font-specification:Eurostile Bold">L O A D I N G</tspan></text>
    <path
       sodipodi:type="arc"
       style="fill:#f0f0f0;fill-opacity:1;stroke:none"
       id="path3798"
       sodipodi:cx="-46.400002"
       sodipodi:cy="3.9000001"
       sodipodi:rx="8.1999998"
       sodipodi:ry="2.7"
       d="m -38.200002,3.9000001 c 0,1.4911688 -3.671265,2.7 -8.2,2.7 -4.528734,0 -8.199999,-1.2088312 -8.199999,-2.7 0,-1.4911689 3.671265,-2.7000001 8.199999,-2.7000001 4.528735,0 8.2,1.2088312 8.2,2.7000001 z"
       transform="matrix(2.4390244,0,0,7.4074073,228.17074,775.47329)" />
    <path
       sodipodi:type="arc"
       style="fill:#f0f0f0;fill-opacity:1;stroke:none"
       id="path3798-7"
       sodipodi:cx="-46.400002"
       sodipodi:cy="3.9000001"
       sodipodi:rx="8.1999998"
       sodipodi:ry="2.7"
       d="m -38.200002,3.9000001 c 0,1.4911688 -3.671265,2.7 -8.2,2.7 -4.528734,0 -8.199999,-1.2088312 -8.199999,-2.7 0,-1.4911689 3.671265,-2.7000001 8.199999,-2.7000001 4.528735,0 8.2,1.2088312 8.2,2.7000001 z"
       transform="matrix(2.4390244,0,0,7.4074073,273.17074,738.47329)" />
    <path
       sodipodi:type="arc"
       style="fill:#f0f0f0;fill-opacity:1;stroke:none"
       id="path3798-6"
       sodipodi:cx="-46.400002"
       sodipodi:cy="3.9000001"
       sodipodi:rx="8.1999998"
       sodipodi:ry="2.7"
       d="m -38.200002,3.9000001 c 0,1.4911688 -3.671265,2.7 -8.2,2.7 -4.528734,0 -8.199999,-1.2088312 -8.199999,-2.7 0,-1.4911689 3.671265,-2.7000001 8.199999,-2.7000001 4.528735,0 8.2,1.2088312 8.2,2.7000001 z"
       transform="matrix(2.4390244,0,0,7.4074073,247.17073,826.47329)" />
    <path
       sodipodi:type="arc"
       style="fill:#f0f0f0;fill-opacity:1;stroke:none"
       id="path3798-2"
       sodipodi:cx="-46.400002"
       sodipodi:cy="3.9000001"
       sodipodi:rx="8.1999998"
       sodipodi:ry="2.7"
       d="m -38.200002,3.9000001 c 0,1.4911688 -3.671265,2.7 -8.2,2.7 -4.528734,0 -8.199999,-1.2088312 -8.199999,-2.7 0,-1.4911689 3.671265,-2.7000001 8.199999,-2.7000001 4.528735,0 8.2,1.2088312 8.2,2.7000001 z"
       transform="matrix(2.4390244,0,0,7.4074073,318.17074,775.47329)" />
    <path
       sodipodi:type="arc"
       style="fill:#f0f0f0;fill-opacity:1;stroke:none"
       id="path3798-1"
       sodipodi:cx="-46.400002"
       sodipodi:cy="3.9000001"
       sodipodi:rx="8.1999998"
       sodipodi:ry="2.7"
       d="m -38.200002,3.9000001 c 0,1.4911688 -3.671265,2.7 -8.2,2.7 -4.528734,0 -8.199999,-1.2088312 -8.199999,-2.7 0,-1.4911689 3.671265,-2.7000001 8.199999,-2.7000001 4.528735,0 8.2,1.2088312 8.2,2.7000001 z"
       transform="matrix(2.4390244,0,0,7.4074073,299.17073,826.47329)" />
  </g>
</svg>
